<?xml version="1.0" encoding="iso-8859-1"?>
<!DOCTYPE svg PUBLIC "-//W3C//DTD SVG 1.1//EN" "http://www.w3.org/Graphics/SVG/1.1/DTD/svg11.dtd">
<svg version="1.1" id="Capa_1" xmlns="http://www.w3.org/2000/svg" xmlns:xlink="http://www.w3.org/1999/xlink" x="0px" y="0px"
	 width="97px" height="97px" viewBox="0 0 97 97" style="enable-background:new 0 0 97 97;" xml:space="preserve">
<g>
	<linearGradient id="SVGID_1_" gradientUnits="userSpaceOnUse" x1="14.7759" y1="82.1377" x2="82.1904" y2="14.7232">
		<stop  offset="0.1452" style="stop-color:#3B6872"/>
		<stop  offset="0.6684" style="stop-color:#66A5AD"/>
	</linearGradient>
	
		<path style="fill:url(#SVGID_1_);stroke:#498089;stroke-width:1.75;stroke-linecap:round;stroke-linejoin:round;stroke-miterlimit:22.9256;" d="
		M22.677,8.338c10.452-6.65,23.522-9.17,35.657-6.518c11.926,2.37,22.659,9.696,29.507,19.695c6.822,9.9,9.65,22.469,7.711,34.34
		c-2.495,16.905-14.975,32.16-31.356,37.33c4.045-3.787,10.126-6.624,11.096-12.621c1.03-0.688,2.062-1.384,3.103-2.07
		c0.881-3.101,5.582-6.238,6.215-9.397c-1.241-0.663-2.484-1.323-3.728-1.983c-0.142-1.215-0.292-2.414-0.43-3.62
		c-1.648-1.384-5.038-5.188-6.987-6.147c-2.873-0.412-5.773-0.509-8.662-0.723c-0.564,0.97-1.128,1.947-1.694,2.918
		c-2.484-0.521-2.661-3.12-3.41-5.082c-0.792-0.063-2.389-0.177-3.183-0.247c0.46-1.366,0.908-2.731,1.349-4.113
		c-2.158-0.334-3.798,1.057-5.463,2.184c-0.669-0.969-1.34-1.937-2.001-2.906c0.599-1.673,1.2-3.338,1.825-4.993
		c2.475-0.3,4.937-0.617,7.402-0.908c0.732,1.515,1.226,3.286,2.732,4.236c-0.222-4.208,0.41-5.568,3.027-8.555
		c3.188-2.254,6.969-3.479,10.601-4.817c-1.393-3.726-2.873-7.416-4.584-11.019c-2.889,1.136-3.188-2.599-4.397-4.308
		c-1.304-0.141-2.599-0.29-3.896-0.414c-0.079,2.588-0.219,5.18-0.377,7.769c-0.591-0.044-1.771-0.133-2.37-0.176
		c-2.282-2.413-4.717-4.686-7.201-6.897c0.291-0.731,0.864-2.175,1.164-2.906c2.353-0.265,4.717-0.431,7.085-0.669
		c-0.325-1.647-0.65-3.287-0.979-4.923c-8.098-0.494-16.418,1.673-24.165-1.568c-1.516,0.669-3.023,1.364-4.503,2.104
		C28.644,10.628,25.594,9.667,22.677,8.338L22.677,8.338z M4.249,66.207c-7.632-18.506-2.141-41.803,13.757-54.24
		c0.186,0.422,0.583,1.269,0.776,1.689c-1.093,0.653-1.904,1.542-2.415,2.688l2.672-0.282c-0.663,0.845-1.994,2.546-2.654,3.4
		c0.511,1.506,1.04,3.022,1.702,4.475c2.07-1.708,3.683-3.893,5.86-5.496c1.869,0.757,3.755,1.497,5.632,2.255
		c1.462,2.51-0.058,4.995,1.405,7.512c-0.105,2.872-2.518,5.743-2.289,8.606c2.653,5.734,6.856,11.273,10.646,16.347
		c3.463,1.638,11.416,2.237,14.649,4.377c1.532,1.43,2.688,3.198,3.977,4.846c0.704-0.08,2.097-0.237,2.802-0.309
		c-1.006,1.64-1.992,3.303-2.988,4.95c0.679,2.924,1.357,5.874,1.957,8.816c1.488,1.189,3.006,2.361,4.521,3.523
		c-1.711,5.329-3.42,10.791-6.443,15.529C36.152,100.249,12.145,86.932,4.249,66.207L4.249,66.207z"/>
</g>
<path style="fill-rule:evenodd;clip-rule:evenodd;fill:#FFFFFF;stroke:#FFFFFF;stroke-width:0.5669;stroke-miterlimit:22.9256;" d="
	M13.08,52.396h16.457H13.08z"/>
<g>
	<linearGradient id="SVGID_2_" gradientUnits="userSpaceOnUse" x1="29.6416" y1="57.8037" x2="10.5574" y2="90.8586">
		<stop  offset="0" style="stop-color:#FFFFFF"/>
		<stop  offset="0.0636" style="stop-color:#DAEBEC"/>
		<stop  offset="0.1515" style="stop-color:#B2D6D9"/>
		<stop  offset="0.2428" style="stop-color:#93C6C9"/>
		<stop  offset="0.3369" style="stop-color:#7ABBBE"/>
		<stop  offset="0.4351" style="stop-color:#6BB4B7"/>
		<stop  offset="0.5398" style="stop-color:#61B0B4"/>
		<stop  offset="0.7809" style="stop-color:#5EAFB2"/>
	</linearGradient>
	
		<path style="fill-rule:evenodd;clip-rule:evenodd;fill:url(#SVGID_2_);stroke:#167C84;stroke-width:1.75;stroke-linecap:round;stroke-linejoin:round;stroke-miterlimit:22.9256;" d="
		M14.88,56.662h10.438c4.844,0,8.808,3.964,8.808,8.808v17.723c0,4.845-3.965,8.808-8.808,8.808H14.88
		c-4.843,0-8.807-3.962-8.807-8.808V65.47C6.074,60.625,10.038,56.662,14.88,56.662z"/>
	
		<circle style="fill-rule:evenodd;clip-rule:evenodd;fill:#E8B87D;stroke:#498089;stroke-width:1.75;stroke-linecap:round;stroke-linejoin:round;stroke-miterlimit:22.9256;" cx="20.099" cy="50.511" r="10.477"/>
	<linearGradient id="SVGID_3_" gradientUnits="userSpaceOnUse" x1="15.2012" y1="55.6719" x2="25.2871" y2="44.8561">
		<stop  offset="0" style="stop-color:#EBBD76"/>
		<stop  offset="1" style="stop-color:#FFFFFF"/>
	</linearGradient>
	<circle style="fill-rule:evenodd;clip-rule:evenodd;fill:url(#SVGID_3_);" cx="20.1" cy="50.419" r="7.541"/>
</g>
</svg>
