<?xml version="1.0" encoding="iso-8859-1"?><!DOCTYPE svg PUBLIC "-//W3C//DTD SVG 1.1//EN" "http://www.w3.org/Graphics/SVG/1.1/DTD/svg11.dtd">
<svg version="1.1" id="Capa_1" xmlns="http://www.w3.org/2000/svg" xmlns:xlink="http://www.w3.org/1999/xlink" x="0px" y="0px"
	 width="97px" height="97px" viewBox="0 0 97 97" style="enable-background:new 0 0 97 97;" xml:space="preserve">
<linearGradient id="SVGID_1_" gradientUnits="userSpaceOnUse" x1="26.1426" y1="86.0508" x2="73.8639" y2="38.3294">
	<stop  offset="0" style="stop-color:#046973"/>
	<stop  offset="1" style="stop-color:#34A6AE"/>
</linearGradient>
<path style="fill-rule:evenodd;clip-rule:evenodd;fill:url(#SVGID_1_);stroke:#08828B;stroke-width:2.0001;stroke-linecap:round;stroke-linejoin:round;stroke-miterlimit:22.9256;" d="
	M35.022,31.452h26.887c8.849,0,16.09,7.24,16.09,16.088v32.373C77.999,88.76,70.758,96,61.909,96H35.022
	c-8.848,0-16.088-7.239-16.088-16.088V47.54C18.934,38.692,26.173,31.452,35.022,31.452z"/>
<polygon style="fill-rule:evenodd;clip-rule:evenodd;fill:#FFFFFF;stroke:#FFFFFF;stroke-width:0.5669;stroke-miterlimit:22.9256;" points="
	33.208,34.616 63.774,34.616 48.49,70.565 "/>
<circle style="fill-rule:evenodd;clip-rule:evenodd;fill:#F9B97A;stroke:#08828B;stroke-width:2.0001;stroke-linecap:round;stroke-linejoin:round;stroke-miterlimit:22.9256;" cx="48.466" cy="22.729" r="19.138"/>
<linearGradient id="SVGID_2_" gradientUnits="userSpaceOnUse" x1="39.438" y1="32.2407" x2="57.494" y2="12.8781">
	<stop  offset="0" style="stop-color:#FABF73"/>
	<stop  offset="1" style="stop-color:#FFFFFF"/>
</linearGradient>
<circle style="fill-rule:evenodd;clip-rule:evenodd;fill:url(#SVGID_2_);" cx="48.466" cy="22.559" r="13.775"/>
<line style="fill-rule:evenodd;clip-rule:evenodd;fill:none;stroke:#08828B;stroke-width:5;stroke-miterlimit:22.9256;" x1="66.843" y1="18.799" x2="30.09" y2="18.799"/>
<path style="fill-rule:evenodd;clip-rule:evenodd;fill:#FFFFFF;stroke:#08828B;stroke-width:2.0001;stroke-linecap:round;stroke-linejoin:round;stroke-miterlimit:22.9256;" d="
	M48.342,29.472c7.804,0,14.172-6.366,14.172-14.172S56.146,1.126,48.342,1.126c-7.807,0-14.174,6.367-14.174,14.173
	S40.535,29.472,48.342,29.472z"/>
<circle style="fill-rule:evenodd;clip-rule:evenodd;fill:#08828B;stroke:#08828B;stroke-width:2.0001;stroke-linecap:round;stroke-linejoin:round;stroke-miterlimit:22.9256;" cx="48.341" cy="14.917" r="3.259"/>
</svg>
