<?xml version="1.0" encoding="iso-8859-1"?><!DOCTYPE svg PUBLIC "-//W3C//DTD SVG 1.1//EN" "http://www.w3.org/Graphics/SVG/1.1/DTD/svg11.dtd">
<svg version="1.1" id="Capa_1" xmlns="http://www.w3.org/2000/svg" xmlns:xlink="http://www.w3.org/1999/xlink" x="0px" y="0px"
	 width="97px" height="97px" viewBox="0 0 97 97" style="enable-background:new 0 0 97 97;" xml:space="preserve">
<linearGradient id="SVGID_1_" gradientUnits="userSpaceOnUse" x1="16.2974" y1="80.7275" x2="80.7127" y2="16.3122">
	<stop  offset="0" style="stop-color:#086973"/>
	<stop  offset="1" style="stop-color:#32A7AF"/>
</linearGradient>
<path style="fill-rule:evenodd;clip-rule:evenodd;fill:url(#SVGID_1_);stroke:#0C838C;stroke-width:2.0001;stroke-linejoin:round;stroke-miterlimit:22.9256;" d="
	M12.688,1.163h71.626c6.353,0,11.55,5.197,11.55,11.548v71.625c0,6.353-5.197,11.55-11.55,11.55H12.688
	c-6.352,0-11.549-5.197-11.549-11.55V12.711C1.139,6.36,6.336,1.163,12.688,1.163z"/>
<g>
	<path style="fill-rule:evenodd;clip-rule:evenodd;fill:#FFFFFF;" d="M53.191,7.002c0.945-0.396,1.972,0.056,2.556,0.774
		c1.865,2.111,4.023,3.97,6,5.986c2.255,2.477,4.513,4.966,7.126,7.129c3.147,2.568,6.272,5.19,9.789,7.325
		c2.089,1.251,4.504,1.924,6.928,2.361c2.438,0.46,4.958,0.462,7.388,0.974c0.545,0.593,0.075,1.375-0.499,1.772
		c-1.354,0.813-2.992,1.245-4.603,1.03c-1.987,0.002-3.923-0.504-5.884-0.632c0.316,0.121,0.642,0.231,0.958,0.365
		c-1.316,0.801-2.813,1.271-4.241,1.859c-1.847,0.747-3.79,1.256-5.729,1.741c-0.144-0.272-0.286-0.545-0.427-0.818
		c1.063-0.64,1.945-1.558,3.119-2.019c2.009-0.443,3.951-1.182,6.029-1.324c-2.824-0.398-5.532-1.464-7.821-3.046
		c-3.939-2.721-7.598-5.781-11.055-9.011c-1.324-1.271-2.455-2.697-3.69-4.037c-2.021-2.356-4.346-4.462-6.438-6.763
		c-2.23,2.253-4.155,4.756-6.467,6.944c-2.042,1.891-4.161,3.704-6.231,5.569c-1.785,1.635-3.312,3.512-5.283,4.968
		c-3.956,3.063-7.687,6.367-11.354,9.725c-1.795,1.63-3.749,3.106-5.73,4.536c-1.078,0.832-2.483,1.112-3.743,1.623
		c-0.159-0.258-0.314-0.515-0.473-0.773c3.684-2.361,6.832-5.32,10.013-8.22c2.447-2.156,4.91-4.298,7.502-6.305
		c2.065-1.531,3.693-3.48,5.577-5.188c1.808-1.618,3.639-3.215,5.444-4.838c2.681-2.436,4.857-5.287,7.366-7.87
		C50.594,9.559,51.376,7.735,53.191,7.002L53.191,7.002L53.191,7.002z M78.558,83.377L69.267,83.9
		c-1.132-0.422-2.049-1.257-3.249-1.536c-2.79-0.671-5.759-0.21-8.524-0.986c-1.582-0.384-2.289-1.906-3.54-2.729
		c-1.325-0.808-2.894-0.079-4.266,0.196c-3.634,0.788-7.349,1.943-11.12,1.461c-1.938-0.241-2.74-2.117-4.281-2.979
		c-1.496-0.897-3.327-0.97-5.052-1.018c2.034-0.965,3.013-2.977,3.844-4.838c2.699-6.903,5.439-14.363,6.423-21.69
		c0.73-5.031,1.377-3.873,0.343-8.908c-0.655-3.09-1.086-6.286-0.509-9.418c0.353-1.674,1.236-3.217,2.4-4.524
		c-0.195-0.212-0.39-0.425-0.582-0.637c-1.338,0.574-2.759,0.981-4.05,1.643l0,0c-2.319,2.293-3.106,5.54-3.127,8.605
		c-0.141,3.239,0.758,6.408,0.854,9.635c0.114,4.704-0.6,3.069-1.478,7.69c-0.873,4.16-2.13,8.736-3.728,12.709
		c-1.351,3.379-2.538,6.859-4.545,9.964c-2.647,0.424-5.221,1.152-7.836,1.702c-3.019,0.659-5.751,2.05-8.645,3.036
		c-1.971,0.589-3.392,2.063-5.039,3.155c0.167,0.248,0.333,0.497,0.501,0.745c3.553-1.144,6.889-2.87,10.587-3.613
		c3.343-0.74,6.673-1.71,10.141-1.748c1.707,0.007,3.618-0.102,5.07,0.883c1.14,0.709,1.767,1.956,2.995,2.562
		c1.414,0.689,3.063,0.793,4.629,0.714c3.579-0.271,7.049-1.18,10.522-1.979c0.512-0.079,1.156-0.217,1.559,0.182
		c1.054,0.962,1.972,2.16,3.431,2.626c2.527,0.835,5.263,0.567,7.879,0.914c1.189,0.14,2.205,0.763,3.218,1.312
		c1.211,0.669,2.671,0.772,4.047,0.7C101.09,85.291,81.735,82.579,78.558,83.377L78.558,83.377z M64.395,29.188L64.395,29.188
		c-1.977,1.971-3.297,4.606-3.241,7.337c0.035,3.463,0.558,6.902,0.631,10.366c0.21,6.599,0.896,7.392,0.218,13.986
		c-0.432,4.954-1.563,9.821-2.52,14.702c-0.147,0.789-0.33,1.58-0.312,2.386c-0.083,0.564,0.595,1.047,1.163,0.854
		c1.466-0.289,2.915-1.024,3.772-2.185c0.587-1.546,0.625-3.218,1-4.812c1.319-6.155,2.306-12.89,2.26-19.178
		c-0.067-2.201-0.102-4.404-0.211-6.604c-0.361-4.884-0.631-3.462-1.138-8.333c-0.101-1.742-0.354-3.543,0.192-5.244
		c0.527-1.58,1.485-3.014,2.701-4.218c-0.177-0.238-0.353-0.478-0.527-0.714C67.067,28.103,65.623,28.46,64.395,29.188
		L64.395,29.188z M47.249,37.878L47.249,37.878c-0.949,0.871-0.286,2.163-0.678,3.213c0.174,1.546-0.018,3.118,0.408,4.635
		c1.132-0.651,2.238-1.36,3.499-1.794c0.125-1.425,0.077-2.855,0.054-4.281c0.828,0.231,2.094,0.149,2.424,1.068
		c0.346,1.462,0.177,2.977,0.257,4.462c-1.114-0.135-2.275-0.152-3.348,0.198c-0.348,0.357-0.52,0.834-0.649,1.293
		c-0.128,0.67,0.568,1.065,1.104,1.35c1.169,0.57,2.382,1.354,3.774,1.158c1.022-0.525,2.07-1.015,3.145-1.44
		c-1.049-1.283-0.752-2.942-0.814-4.44c-0.047-1.44,0.086-2.935-0.43-4.317c-0.524-1.389-2.342-1.471-3.653-1.758
		C50.667,37.005,48.565,36.612,47.249,37.878L47.249,37.878z M26.531,39.14L26.531,39.14c-1.979,0.813-3.927,1.696-5.945,2.424
		c-1.4,0.468-2.426,1.505-3.61,2.293c0.153,0.266,0.306,0.528,0.459,0.793c4.046-1.733,8.372-3.097,11.915-5.672
		C28.412,38.954,27.422,38.751,26.531,39.14L26.531,39.14z M45.383,62.862c1.572-1.117,3.522-2.099,5.569-1.723
		c1.657,0.333,2.73,1.682,3.702,2.863c0.729,0.875,0.578,2.069,0.371,3.087c-0.354,1.582-0.842,3.136-1.364,4.677
		c-0.399,1.396-1.698,2.345-2.922,3.126c-0.637,0.06-1.263-0.141-1.881-0.256c0.081-2.586,1.702-4.915,1.748-7.509
		c-0.368-1.313-1.672-2.264-2.942-2.841c-1.07,3.956-2.229,7.887-3.335,11.835c-1.924,0.85-3.854,1.688-5.785,2.53
		c1.003-3.051,1.948-6.116,2.691-9.23c0.413-1.384,0.605-2.848,1.314-4.138C43.173,64.2,44.386,63.604,45.383,62.862z"/>
</g>
<path style="fill-rule:evenodd;clip-rule:evenodd;fill:#FFFFFF;stroke:#FFFFFF;stroke-width:0.5669;stroke-miterlimit:22.9256;" d="
	M131.482-46.698c-0.119-0.355,0.435-0.849,0.764-0.584C132.459-46.891,131.799-46.521,131.482-46.698L131.482-46.698L131.482-46.698
	z M133.271-46.4L133.271-46.4c-1.248,0.138-2.333,0.815-3.378,1.458c-0.886,0.547-1.661,1.294-2.147,2.22
	c-0.999,1.879-1.343,4.019-1.51,6.116c-1.391,0.128-2.813,0.37-4.021,1.12c0.124,0.324,0.352,0.454,0.685,0.392
	c1.14-0.106,2.393-0.012,3.371-0.71c0.358,1.136,0.774,2.411,1.85,3.068c1.846,1.083,4.257,1.151,6.147,0.138
	c1.471-0.793,3.007-1.625,4.005-3.013c0.399-0.494,0.653-1.098,1.103-1.551c1.146-0.353,2.358-0.444,3.5-0.817
	c-0.757-0.986-2.314-0.834-3.217-0.157c0.909-1.911,0.157-4.019-0.652-5.814c0.297-0.476,1.098-0.865,0.88-1.501
	c-0.455,0.245-0.879,0.542-1.304,0.833c-0.778-0.385-1.635-0.525-2.491-0.595c-0.166,2.254,1.669,4.06,1.611,6.309
	c-0.083,1.753-0.987,3.412-2.229,4.621c-0.938,0.967-2.399,1.03-3.654,0.89c-1.161-0.167-2.447-0.65-2.953-1.801
	c-0.878-1.454-0.534-3.214-0.256-4.786c0.36-1.592,0.834-3.287,2.054-4.45c1.015-0.914,2.51-0.52,3.716-0.914
	c0.624-0.346,1.161-0.825,1.723-1.265C135.155-46.545,134.21-46.506,133.271-46.4L133.271-46.4z M124.491-44.731
	c1.36-0.278,2.597,0.436,3.461,1.432c-0.399,0.237-0.797,0.472-1.19,0.707C126.014-43.322,125.011-43.793,124.491-44.731
	L124.491-44.731L124.491-44.731z M138.459-33.218c0.46-0.315,0.919-0.636,1.422-0.887c0.691,0.417,1.071,1.175,1.286,1.927
	C140.156-32.181,139.252-32.628,138.459-33.218L138.459-33.218L138.459-33.218z M132.526-30.816
	c0.545-0.329,1.086-0.661,1.628-0.996c0.806,0.911,1.394,1.99,1.7,3.17c-0.616-0.167-1.255-0.288-1.83-0.571
	C133.393-29.605,132.986-30.251,132.526-30.816L132.526-30.816z"/>
</svg>
