<?xml version="1.0" encoding="utf-8"?>
<!DOCTYPE svg PUBLIC "-//W3C//DTD SVG 1.1//EN" "http://www.w3.org/Graphics/SVG/1.1/DTD/svg11.dtd">
<svg version="1.1" id="Capa_1" xmlns="http://www.w3.org/2000/svg" xmlns:xlink="http://www.w3.org/1999/xlink" x="0px" y="0px"
	 width="97px" height="97px" viewBox="0 0 97 97" enable-background="new 0 0 97 97" xml:space="preserve">
<g>
	<path fill="#FBB579" d="M-118.606,70.244L-118.606,70.244"/>
	
		<linearGradient id="SVGID_1_" gradientUnits="userSpaceOnUse" x1="-5847.8931" y1="511.5967" x2="-5847.8931" y2="511.5967" gradientTransform="matrix(1 0 0 1 5730.0898 -440.0439)">
		<stop  offset="0" style="stop-color:#FCBA74"/>
		<stop  offset="1" style="stop-color:#FFFFFF"/>
	</linearGradient>
	<path fill="url(#SVGID_1_)" d="M-117.803,71.553L-117.803,71.553"/>
</g>
<g>
	<path fill="#FBB579" d="M-87.203,70.051L-87.203,70.051"/>
	
		<linearGradient id="SVGID_2_" gradientUnits="userSpaceOnUse" x1="-5816.4897" y1="511.4014" x2="-5816.4897" y2="511.4014" gradientTransform="matrix(1 0 0 1 5730.0898 -440.0439)">
		<stop  offset="0" style="stop-color:#FCBA74"/>
		<stop  offset="1" style="stop-color:#FFFFFF"/>
	</linearGradient>
	<path fill="url(#SVGID_2_)" d="M-86.4,71.357L-86.4,71.357"/>
</g>
<g>
	
		<linearGradient id="SVGID_3_" gradientUnits="userSpaceOnUse" x1="-39.9526" y1="217.5254" x2="-18.7368" y2="217.5254" gradientTransform="matrix(1 0 0 -1 114.9448 296.7246)">
		<stop  offset="0" style="stop-color:#056A72"/>
		<stop  offset="0.6684" style="stop-color:#35A9AF"/>
	</linearGradient>
	
		<path fill="url(#SVGID_3_)" stroke="#17717A" stroke-width="1.7302" stroke-linecap="round" stroke-linejoin="round" stroke-miterlimit="22.9256" d="
		M85.601,62.222c2.194,3.666,4.275,7.398,6.199,11.213c1.561,3.164,3.102,6.361,4.047,9.771c1.281,4.332-0.965,9.236-4.809,11.479
		c-3.29,2.016-7.686,1.984-10.958-0.051c-2.862-1.709-4.726-4.82-5.088-8.113v-1.488c0.53-3.348,1.989-6.438,3.383-9.492
		C80.574,70.985,83.019,66.565,85.601,62.222z"/>
</g>
<g>
	<path fill="#B7D7D9" d="M71.446,65.227c-0.896-0.014-1.64-0.594-2.426-1.209c-0.271-0.211-0.542-0.422-0.816-0.609
		c-1.932-1.348-3.934-2.742-6.358-3.375c-0.83-0.162-1.622-0.25-2.388-0.336c-0.738-0.082-1.437-0.16-2.131-0.291
		c-2.468-0.494-4.664-1.752-6.304-2.793c-1.929-1.238-3.773-2.678-5.555-4.07L26.382,37.639L41.25,19.714
		c3.686,2.884,7.373,5.764,11.063,8.645l6.78,5.295c0.521,0.41,1.048,0.821,1.577,1.233c2.799,2.177,5.691,4.428,7.839,7.224
		c0.875,1.16,1.516,2.358,1.901,3.555c0.15,0.392,0.271,0.744,0.394,1.1c0.349,1.02,0.709,2.07,1.415,3.006
		c1.555,2.162,3.654,3.863,5.684,5.51l0.131,0.104c0.401,0.336,0.68,0.863,0.773,1.475l0.002,0.016
		c-0.05,0.553-0.273,1.076-0.65,1.52l-5.099,6.031C72.692,64.842,72.116,65.131,71.446,65.227z"/>
	<g>
		<path fill="#17717A" d="M41.366,20.767c3.49,2.732,6.984,5.461,10.48,8.189l6.772,5.289c0.524,0.416,1.055,0.828,1.586,1.24
			c2.76,2.147,5.614,4.368,7.693,7.075c0.828,1.099,1.43,2.222,1.789,3.336c0.01,0.03,0.021,0.06,0.032,0.091
			c0.132,0.336,0.249,0.678,0.366,1.021c0.351,1.023,0.748,2.186,1.507,3.192c1.624,2.258,3.764,3.99,5.833,5.666l0.109,0.09
			c0.254,0.213,0.432,0.541,0.508,0.934c-0.051,0.365-0.209,0.711-0.467,1.014l-2.838,3.355l-2.24,2.65
			c-0.246,0.279-0.635,0.477-1.099,0.555c-0.62-0.037-1.222-0.508-1.913-1.047c-0.283-0.221-0.566-0.439-0.845-0.631
			c-1.897-1.324-4.05-2.824-6.606-3.49c-0.029-0.008-0.062-0.016-0.093-0.021c-0.813-0.158-1.62-0.248-2.401-0.336
			c-0.725-0.08-1.407-0.156-2.058-0.277c-2.353-0.473-4.471-1.688-6.047-2.688c-1.903-1.223-3.732-2.65-5.502-4.031l-0.263-0.207
			c-3.34-2.605-6.678-5.212-10.014-7.819l-8.191-6.396L41.366,20.767 M41.138,18.662L25.297,37.757
			c6.48,5.058,12.957,10.121,19.439,15.18c1.914,1.494,3.822,2.998,5.879,4.318c2.014,1.279,4.18,2.42,6.569,2.898
			c1.478,0.275,2.991,0.326,4.468,0.613c2.279,0.596,4.231,1.949,6.119,3.268c1.141,0.783,2.186,1.953,3.706,1.953
			c0.006,0,0.013,0,0.019,0l0.041-0.008c0.799-0.109,1.569-0.461,2.103-1.064c1.698-2.01,3.397-4.02,5.097-6.029
			c0.49-0.576,0.786-1.281,0.836-2.025l-0.015-0.117c-0.112-0.738-0.454-1.453-1.047-1.949c-2.052-1.662-4.147-3.342-5.687-5.479
			c-0.869-1.153-1.177-2.569-1.691-3.882c-0.439-1.364-1.152-2.631-2.021-3.784c-2.611-3.4-6.186-5.93-9.551-8.594
			C53.421,28.255,47.273,23.464,41.138,18.662L41.138,18.662z"/>
	</g>
</g>
<linearGradient id="SVGID_4_" gradientUnits="userSpaceOnUse" x1="-449.0503" y1="211.2441" x2="-413.374" y2="211.2441" gradientTransform="matrix(0.6233 -0.782 -0.782 -0.6233 452.8213 -188.4636)">
	<stop  offset="0" style="stop-color:#056A72"/>
	<stop  offset="0.6684" style="stop-color:#35A9AF"/>
</linearGradient>
<path fill="url(#SVGID_4_)" stroke="#17717A" stroke-width="1.7302" stroke-linecap="round" stroke-linejoin="round" stroke-miterlimit="22.9256" d="
	M23.875,40.648c0.013-0.011,0.024-0.025,0.035-0.037l20.207-24.359c0.188-0.938-0.123-1.969-0.91-2.576
	c-2.172-1.713-4.351-3.411-6.537-5.105c-1.069-0.851-2.807-0.742-3.75,0.266c-0.668,0.725-1.271,1.5-1.92,2.242
	c-2.688-2.097-5.371-4.197-8.059-6.293c-1.127-0.869-2.213-1.805-3.488-2.47c-2.112-1.141-4.582-1.627-7.006-1.466l-0.654,0.066
	C8.415,1.344,5.241,3.136,3.235,5.806c-1.802,2.314-2.646,5.259-2.441,8.123l0.054,0.5c0.319,2.387,1.351,4.684,3.008,6.482
	c0.722,0.797,1.577,1.465,2.431,2.125c2.928,2.291,5.861,4.576,8.787,6.869c-0.601,0.729-1.229,1.436-1.82,2.17
	c-0.608,0.756-0.741,1.832-0.338,2.696c0.213,0.517,0.643,0.902,1.08,1.24c2.078,1.612,4.14,3.248,6.226,4.851
	C21.267,41.671,22.925,41.587,23.875,40.648z"/>
<linearGradient id="SVGID_5_" gradientUnits="userSpaceOnUse" x1="-207.3618" y1="437.5596" x2="-181.8496" y2="437.5596" gradientTransform="matrix(-0.6312 0.7756 -1.278 -1.0401 464.958 630.2978)">
	<stop  offset="0" style="stop-color:#C1DBDF"/>
	<stop  offset="1" style="stop-color:#FFFFFF;stop-opacity:0"/>
</linearGradient>
<polygon opacity="0.5" fill="url(#SVGID_5_)" enable-background="new    " points="22.829,35.858 39.241,16.477 34.351,12.656 
	17.943,32.037 "/>
<g>
	
		<linearGradient id="SVGID_6_" gradientUnits="userSpaceOnUse" x1="-139.2236" y1="254.8936" x2="-127.8008" y2="266.3164" gradientTransform="matrix(1.0853 -0.0392 -0.2038 -1.0667 251.0642 316.5589)">
		<stop  offset="0" style="stop-color:#C1DBDF"/>
		<stop  offset="0.7043" style="stop-color:#FFFFFF"/>
	</linearGradient>
	<path fill="url(#SVGID_6_)" d="M31.948,37.311c4.856,3.778,9.709,7.562,14.565,11.341c1.437,1.116,2.865,2.241,4.39,3.245
		c1.492,0.975,3.086,1.857,4.805,2.311c1.06,0.264,2.131,0.373,3.188,0.643c1.646,0.52,3.099,1.543,4.503,2.533
		c0.855,0.598,1.659,1.453,2.741,1.523l0.024-0.002c0.562-0.037,1.086-0.24,1.433-0.627c1.091-1.289,2.185-2.576,3.278-3.867
		c0.314-0.365,0.486-0.836,0.481-1.34l-0.017-0.08c-0.121-0.514-0.4-1.02-0.848-1.389c-1.537-1.236-3.113-2.486-4.317-4.024
		c-0.673-0.834-0.97-1.815-1.404-2.74c-0.385-0.952-0.957-1.854-1.633-2.686c-2.031-2.455-4.694-4.359-7.218-6.35
		c-4.6-3.584-9.206-7.164-13.805-10.752L31.948,37.311z"/>
</g>
<line fill="none" stroke="#17717A" stroke-width="2.2848" stroke-linecap="round" stroke-linejoin="round" stroke-miterlimit="22.9256" x1="52.501" y1="29.548" x2="46.088" y2="37.3"/>
<line fill="none" stroke="#17717A" stroke-width="2.2848" stroke-linecap="round" stroke-linejoin="round" stroke-miterlimit="22.9256" x1="58.118" y1="33.839" x2="51.708" y2="41.59"/>
<line fill="none" stroke="#17717A" stroke-width="2.2848" stroke-linecap="round" stroke-linejoin="round" stroke-miterlimit="22.9256" x1="63.741" y1="38.126" x2="57.329" y2="45.878"/>
</svg>
