<?xml version="1.0" encoding="iso-8859-1"?><!DOCTYPE svg PUBLIC "-//W3C//DTD SVG 1.1//EN" "http://www.w3.org/Graphics/SVG/1.1/DTD/svg11.dtd">
<svg version="1.1" id="Capa_1" xmlns="http://www.w3.org/2000/svg" xmlns:xlink="http://www.w3.org/1999/xlink" x="0px" y="0px"
	 width="97px" height="97px" viewBox="0 0 97 97" style="enable-background:new 0 0 97 97;" xml:space="preserve">
<linearGradient id="SVGID_1_" gradientUnits="userSpaceOnUse" x1="-95.8604" y1="209.1377" x2="59.7262" y2="36.3414">
	<stop  offset="0" style="stop-color:#34A6AE"/>
	<stop  offset="1" style="stop-color:#FFFFFF"/>
</linearGradient>
<path style="fill-rule:evenodd;clip-rule:evenodd;fill:url(#SVGID_1_);stroke:#08828B;stroke-width:2.0001;stroke-linecap:round;stroke-linejoin:round;stroke-miterlimit:22.9256;" d="
	M11.475,1.047h56.03l22.48,22.911v68.025c0,2.242-1.801,4.077-4.001,4.077H11.475c-2.2,0-4-1.835-4-4.077V5.125
	C7.475,2.882,9.275,1.047,11.475,1.047z"/>
<linearGradient id="SVGID_2_" gradientUnits="userSpaceOnUse" x1="77.9805" y1="13.3804" x2="68.3585" y2="24.4492">
	<stop  offset="0" style="stop-color:#34A6AE"/>
	<stop  offset="1" style="stop-color:#FFFFFF"/>
</linearGradient>
<path style="fill-rule:evenodd;clip-rule:evenodd;fill:url(#SVGID_2_);stroke:#08828B;stroke-width:2.0001;stroke-linecap:round;stroke-linejoin:round;stroke-miterlimit:22.9256;" d="
	M89.984,23.958H71.505c-2.2,0-4-1.834-4-4.077V1.047L89.984,23.958z"/>
<path style="fill-rule:evenodd;clip-rule:evenodd;fill:#08828B;" d="M79.604,83.129H65.44l-5.515-7.589L35.618,41.795
	c-1.29,0.054-2.34,0.081-3.152,0.081c-0.333,0-0.691-0.014-1.063-0.026c-0.387-0.014-0.772-0.027-1.185-0.054v15.402
	c0,3.323,0.361,5.385,1.091,6.185c0.985,1.141,2.461,1.714,4.429,1.714h2.061v1.438H15.137v-1.438h1.98
	c2.236,0,3.831-0.73,4.789-2.183c0.545-0.797,0.812-2.71,0.812-5.716V22.965c0-3.324-0.36-5.386-1.09-6.184
	c-1.011-1.144-2.515-1.715-4.51-1.715h-1.98v-1.437h19.259c5.624,0,9.76,0.412,12.421,1.224c2.671,0.824,4.933,2.34,6.782,4.535
	c1.86,2.194,2.792,4.813,2.792,7.859c0,3.257-1.065,6.077-3.18,8.471c-2.128,2.395-5.399,4.083-9.854,5.083L66.16,72.546
	c2.495,3.473,4.651,5.81,6.436,6.954c1.779,1.144,4.122,1.876,7.009,2.192V83.129L79.604,83.129z M30.218,39.322
	c0.492,0,0.918,0,1.276,0.014c0.36,0.013,0.653,0.026,0.879,0.026c4.988,0,8.75-1.09,11.277-3.27
	c2.541-2.195,3.802-4.976,3.802-8.353c0-3.297-1.023-5.985-3.058-8.06c-2.049-2.061-4.761-3.097-8.125-3.097
	c-1.489,0-3.51,0.239-6.052,0.718V39.322z"/>
<path style="fill-rule:evenodd;clip-rule:evenodd;fill:#08828B;" d="M55.02,55.239l3.567-4.955c2.244-3.117,3.452-5.051,3.47-5.906
	c0-0.678-0.274-1.259-0.807-1.743c-0.534-0.469-1.406-0.711-2.6-0.711v-1.742h14.54v1.742c-1.563,0.098-2.905,0.517-4.049,1.275
	c-1.566,1.066-3.666,3.389-6.326,6.972l-5.923,7.875l-4.811,6.373l-6.955,9.231c-2.142,2.846-3.114,4.615-3.114,5.164
	c0,0.759,0.353,1.452,1.064,2.063c0.711,0.632,1.775,0.969,3.195,1.033v1.646H32.137v-1.646c1.131-0.16,2.115-0.548,2.97-1.192
	c1.194-0.907,3.21-3.246,6.035-7.02l9.021-12.119L55.02,55.239z"/>
<path style="fill-rule:evenodd;clip-rule:evenodd;fill:none;stroke:#08828B;stroke-width:2.9999;stroke-linecap:round;stroke-linejoin:round;stroke-miterlimit:22.9256;" d="
	M80,74.643"/>
<path style="fill-rule:evenodd;clip-rule:evenodd;fill:none;stroke:#08828B;stroke-width:2.9999;stroke-linecap:round;stroke-linejoin:round;stroke-miterlimit:22.9256;" d="
	M18.447,74.643"/>
<path style="fill-rule:evenodd;clip-rule:evenodd;fill:none;stroke:#08828B;stroke-width:2.9999;stroke-linecap:round;stroke-linejoin:round;stroke-miterlimit:22.9256;" d="
	M79.004,75.593"/>
<path style="fill-rule:evenodd;clip-rule:evenodd;fill:none;stroke:#08828B;stroke-width:2.9999;stroke-linecap:round;stroke-linejoin:round;stroke-miterlimit:22.9256;" d="
	M28.447,75.593"/>
<path style="fill-rule:evenodd;clip-rule:evenodd;fill:none;stroke:#08828B;stroke-width:2.9999;stroke-linecap:round;stroke-linejoin:round;stroke-miterlimit:22.9256;" d="
	M44.942,84.544"/>
<path style="fill-rule:evenodd;clip-rule:evenodd;fill:none;stroke:#08828B;stroke-width:2.9999;stroke-linecap:round;stroke-linejoin:round;stroke-miterlimit:22.9256;" d="
	M18.447,84.544"/>
</svg>
