<?xml version="1.0" encoding="iso-8859-1"?><!DOCTYPE svg PUBLIC "-//W3C//DTD SVG 1.1//EN" "http://www.w3.org/Graphics/SVG/1.1/DTD/svg11.dtd">
<svg version="1.1" id="Capa_1" xmlns="http://www.w3.org/2000/svg" xmlns:xlink="http://www.w3.org/1999/xlink" x="0px" y="0px"
	 width="97px" height="97px" viewBox="0 0 97 97" style="enable-background:new 0 0 97 97;" xml:space="preserve">
<g>
	<linearGradient id="SVGID_1_" gradientUnits="userSpaceOnUse" x1="48.3638" y1="50.6807" x2="48.3638" y2="14.43">
		<stop  offset="0" style="stop-color:#FABF73"/>
		<stop  offset="1" style="stop-color:#FFFFFF"/>
	</linearGradient>
	
		<path style="fill-rule:evenodd;clip-rule:evenodd;fill:url(#SVGID_1_);stroke:#08828B;stroke-width:2.0001;stroke-linecap:round;stroke-linejoin:round;stroke-miterlimit:22.9256;" d="
		M84.285,20.997H36.645l-0.461-0.008l-5.739-9.187H12.442c-1.954,0-3.56,1.605-3.56,3.559v25.189l0.001,0.026v9.167
		c0,1.957,1.602,3.56,3.559,3.56h71.843c1.958,0,3.56-1.602,3.56-3.56V24.556C87.845,22.599,86.241,20.997,84.285,20.997z"/>
	<linearGradient id="SVGID_2_" gradientUnits="userSpaceOnUse" x1="3.4268" y1="86.7676" x2="85.6235" y2="41.2052">
		<stop  offset="0" style="stop-color:#046973"/>
		<stop  offset="1" style="stop-color:#34A6AE"/>
	</linearGradient>
	
		<path style="fill-rule:evenodd;clip-rule:evenodd;fill:url(#SVGID_2_);stroke:#08828B;stroke-width:2.0001;stroke-linecap:round;stroke-linejoin:round;stroke-miterlimit:22.9256;" d="
		M4.448,36.316h87.831c1.958,0,3.824,1.622,3.56,3.56l-6.525,47.646c-0.265,1.934-1.606,3.559-3.559,3.559H10.973
		c-1.952,0-3.293-1.62-3.559-3.559L0.89,39.876C0.624,37.937,2.49,36.316,4.448,36.316z"/>
	<path style="fill-rule:evenodd;clip-rule:evenodd;fill:#FFFFFF;" d="M36.736,83.857c11.027,0,20.021-8.994,20.021-20.021
		s-8.994-20.021-20.021-20.021c-11.026,0-20.021,8.993-20.021,20.021S25.71,83.857,36.736,83.857z"/>
	
		<line style="fill-rule:evenodd;clip-rule:evenodd;fill:none;stroke:#08828B;stroke-width:7.9999;stroke-miterlimit:22.9256;" x1="37.023" y1="49.854" x2="37.023" y2="77.818"/>
	
		<line style="fill-rule:evenodd;clip-rule:evenodd;fill:none;stroke:#08828B;stroke-width:7.9999;stroke-miterlimit:22.9256;" x1="23.062" y1="63.836" x2="50.986" y2="63.836"/>
	<linearGradient id="SVGID_3_" gradientUnits="userSpaceOnUse" x1="50.7842" y1="50.168" x2="105.7147" y2="0.7083">
		<stop  offset="0" style="stop-color:#0A8991"/>
		<stop  offset="0.0102" style="stop-color:#1B8B93"/>
		<stop  offset="0.1537" style="stop-color:#6FA6AD"/>
		<stop  offset="0.2988" style="stop-color:#A0C0C6"/>
		<stop  offset="0.4429" style="stop-color:#C4D6DA"/>
		<stop  offset="0.5858" style="stop-color:#DEE8EB"/>
		<stop  offset="0.727" style="stop-color:#F1F5F6"/>
		<stop  offset="0.866" style="stop-color:#FCFDFD"/>
		<stop  offset="1" style="stop-color:#FFFFFF"/>
	</linearGradient>
	
		<path style="fill-rule:evenodd;clip-rule:evenodd;fill:url(#SVGID_3_);stroke:#08828B;stroke-width:2.0001;stroke-linecap:round;stroke-linejoin:round;stroke-miterlimit:22.9256;" d="
		M77.753,1.312c9.112,0,16.499,7.387,16.499,16.499c0,6.695-3.988,12.459-9.719,15.046c0.023,0.226,0.035,0.455,0.035,0.688v12.912
		c0,3.748-3.066,6.814-6.815,6.814l0,0c-3.748,0-6.814-3.066-6.814-6.814V33.544c0-0.232,0.012-0.462,0.035-0.688
		c-5.73-2.587-9.719-8.351-9.719-15.046c0-3.552,1.122-6.841,3.031-9.533l7.265,12.269l8.93,0.094l2.87-7.382L76.463,1.361
		C76.889,1.328,77.319,1.312,77.753,1.312z"/>
	
		<path style="fill-rule:evenodd;clip-rule:evenodd;fill:#F9B97A;stroke:#08828B;stroke-width:2.0001;stroke-linecap:round;stroke-linejoin:round;stroke-miterlimit:22.9256;" d="
		M84.568,96.312h-13.63c-1.973,0-3.587-1.614-3.587-3.587v-9.325V56.14v-5.021c0-3.157,2.583-5.739,5.739-5.739h9.325
		c3.156,0,5.739,2.582,5.739,5.738v5.021v27.26v9.325C88.155,94.697,86.541,96.312,84.568,96.312z"/>
	<linearGradient id="SVGID_4_" gradientUnits="userSpaceOnUse" x1="71.5244" y1="70.6504" x2="82.9308" y2="70.6504">
		<stop  offset="0" style="stop-color:#FABF73"/>
		<stop  offset="1" style="stop-color:#FFFFFF"/>
	</linearGradient>
	<path style="fill-rule:evenodd;clip-rule:evenodd;fill:url(#SVGID_4_);" d="M80.963,92.027h-7.472c-1.08,0-1.967-0.968-1.967-2.151
		v-5.595V55.729v-3.013c0-1.894,1.416-3.443,3.146-3.443h5.112c1.73,0,3.146,1.55,3.146,3.443v3.013v28.552v5.595
		C82.93,91.059,82.043,92.027,80.963,92.027z"/>
</g>
</svg>
