<?xml version="1.0" encoding="iso-8859-1"?>
<!DOCTYPE svg PUBLIC "-//W3C//DTD SVG 1.1//EN" "http://www.w3.org/Graphics/SVG/1.1/DTD/svg11.dtd">
<svg version="1.1" id="Capa_1" xmlns="http://www.w3.org/2000/svg" xmlns:xlink="http://www.w3.org/1999/xlink" x="0px" y="0px"
	 width="97px" height="97px" viewBox="0 0 97 97" style="enable-background:new 0 0 97 97;" xml:space="preserve">
<linearGradient id="SVGID_1_" gradientUnits="userSpaceOnUse" x1="19.895" y1="63.3984" x2="80.116" y2="80.9498">
	<stop  offset="0" style="stop-color:#FFFFFF"/>
	<stop  offset="0.0636" style="stop-color:#DEF2F2"/>
	<stop  offset="0.1515" style="stop-color:#B7E2E4"/>
	<stop  offset="0.2428" style="stop-color:#97D6D7"/>
	<stop  offset="0.3369" style="stop-color:#7ECCCE"/>
	<stop  offset="0.4351" style="stop-color:#6DC5C7"/>
	<stop  offset="0.5398" style="stop-color:#62C0C3"/>
	<stop  offset="0.6626" style="stop-color:#5FBFC2"/>
</linearGradient>
<path style="fill-rule:evenodd;clip-rule:evenodd;fill:url(#SVGID_1_);stroke:#08828B;stroke-width:2.0001;stroke-linecap:round;stroke-linejoin:round;stroke-miterlimit:22.9256;" d="
	M35.022,47.451h26.887c8.849,0,16.09,7.24,16.09,16.088v16.373C77.999,88.76,70.758,96,61.909,96H35.022
	c-8.848,0-16.088-7.239-16.088-16.088V63.539C18.934,54.691,26.173,47.451,35.022,47.451z"/>
<polygon style="fill-rule:evenodd;clip-rule:evenodd;fill:#FFFFFF;stroke:#FFFFFF;stroke-width:0.5669;stroke-miterlimit:22.9256;" points="
	34.908,44.615 62.024,44.615 48.466,76.508 "/>
<circle style="fill-rule:evenodd;clip-rule:evenodd;fill:#F9B97A;stroke:#08828B;stroke-width:2.0001;stroke-linecap:round;stroke-linejoin:round;stroke-miterlimit:22.9256;" cx="48.466" cy="32.729" r="19.138"/>
<linearGradient id="SVGID_2_" gradientUnits="userSpaceOnUse" x1="39.4375" y1="42.2397" x2="57.4935" y2="22.8771">
	<stop  offset="0" style="stop-color:#FABF73"/>
	<stop  offset="1" style="stop-color:#FFFFFF"/>
</linearGradient>
<circle style="fill-rule:evenodd;clip-rule:evenodd;fill:url(#SVGID_2_);" cx="48.466" cy="32.559" r="13.775"/>
<path style="fill-rule:evenodd;clip-rule:evenodd;fill:#0C838C;" d="M21.675,33.75c-1.969,4.217-2.105,9.285-0.079,13.507
	c1.307,2.667,3.475,5.215,6.486,5.908c3.811,0.831,7.85-0.104,11.123-2.16c0.018,0.014,0.037,0.022,0.055,0.035
	c0.093-0.36,0.271-0.695,0.526-0.963c0.122-0.294,0.308-0.556,0.548-0.769c0.038-0.146,0.091-0.289,0.157-0.425
	c0.006-0.014,0.014-0.028,0.02-0.04c-3.072-2.08-5.598-4.961-7.2-8.307l-0.072,0.008c-1.708-3.47-2.76-7.359-3.037-11.259
	c-0.062-1.112-0.084-2.229-0.075-3.343c4.839-2.441,9.611-5.201,13.599-8.906c0.586-0.34,1.007-0.936,1.501-1.399
	c-3.544,0.203-7.082,0.645-10.547,1.414c-2.314,0.455-4.526-0.729-6.094-2.341c-1.519,1.891-2.875,4.226-3.325,6.62l-0.031-0.287
	C23.76,25.193,23.332,29.648,21.675,33.75L21.675,33.75z M56.1,49.365c0.125,0.18,0.219,0.38,0.287,0.591
	c0.025,0.037,0.054,0.072,0.076,0.111c0.428,0.26,0.721,0.662,0.87,1.119c0.012-0.006,0.021-0.012,0.033-0.019
	c3.015,2.28,7.122,3.439,10.79,2.158c4.142-1.485,7.492-5.187,8.306-9.553c0.725-3.771,0.105-7.736-1.32-11.268
	c-0.085-0.451-0.225-0.885-0.428-1.299c-1.803-3.545-2.633-7.492-4.438-11.039c-0.667-2.102-1.819-4.04-2.82-6.009
	c-1.391,1.921-3.745,3.237-6.157,2.937c-4.936-0.866-9.933-1.873-14.967-1.551c0.35,0.482,0.702,0.968,1.059,1.449
	c3.967,4.967,10.218,7.815,16.559,7.758c0.557,1.037,1.156,2.053,1.801,3.041l0.035-0.004c0.225,0.27,0.672,0.813,0.897,1.087
	c-0.203,2.856-0.752,5.678-1.666,8.394c-1.723,4.76-4.787,9.15-9.141,11.83C55.957,49.182,56.033,49.27,56.1,49.365z"/>
<polygon style="fill-rule:evenodd;clip-rule:evenodd;fill:#FFFFFF;" points="36.624,24.84 49.711,23.367 57.718,24.472 
	62.143,24.215 66.242,15.91 68.824,9.374 60.903,5.048 49.021,1.365 41.187,3.022 30.942,7.625 28.187,10.939 31.2,18.12 "/>
<path style="fill-rule:evenodd;clip-rule:evenodd;fill:#0C838C;" d="M43.709,0.56c2.901-0.706,5.929-0.761,8.839-0.071
	c5.707,1.323,11.078,3.958,16.127,7.021c1.174,0.66,2.402,2.084,1.792,3.58c-1.09,2.534-2.347,4.983-3.488,7.492l-0.04,0.004
	c-0.852,1.908-1.755,3.795-2.65,5.681c-0.766,1.618-2.656,2.546-4.313,2.042c-4.947-1.066-10.02-1.777-15.074-1.311
	c-2.798,0.256-5.573,0.723-8.324,1.318c-1.657,0.496-3.563-0.428-4.296-2.078c-0.682-1.451-1.368-2.9-2.025-4.363
	c-1.28-2.537-2.402-5.159-3.69-7.689c-0.443-0.861-0.888-1.912-0.491-2.886c0.373-0.958,1.268-1.462,2.073-1.949
	C33.044,4.43,38.212,1.892,43.709,0.56L43.709,0.56z M64.494,17.422c0.877-1.954,1.898-3.836,2.688-5.828
	c0.408-0.984-0.662-1.597-1.279-2.076c-3.465-2.256-7.143-4.16-11.004-5.525c-3.016-1.038-6.251-1.677-9.405-1.017
	c-5.133,1.017-9.897,3.475-14.384,6.236c-0.805,0.517-1.914,1.201-1.672,2.395c0.713,2.009,1.811,3.841,2.644,5.799
	c0.896,1.677,1.609,3.458,2.533,5.122c0.476,0.857,1.447,1.181,2.331,0.953c3.401-0.68,6.825-1.276,10.286-1.437
	c4.007-0.113,7.982,0.567,11.919,1.282c0.951,0.143,2.227,0.298,2.813-0.715C62.869,20.918,63.591,19.119,64.494,17.422z"/>
<g>
	
		<line style="fill-rule:evenodd;clip-rule:evenodd;fill:none;stroke:#0C838C;stroke-width:4.5;stroke-miterlimit:22.9256;" x1="47.922" y1="3.853" x2="47.922" y2="21.03"/>
	
		<line style="fill-rule:evenodd;clip-rule:evenodd;fill:none;stroke:#0C838C;stroke-width:4.5;stroke-miterlimit:22.9256;" x1="39.332" y1="12.44" x2="56.511" y2="12.44"/>
</g>
</svg>
