<?xml version="1.0" encoding="iso-8859-1"?>
<!DOCTYPE svg PUBLIC "-//W3C//DTD SVG 1.1//EN" "http://www.w3.org/Graphics/SVG/1.1/DTD/svg11.dtd">
<svg version="1.1" id="Capa_1" xmlns="http://www.w3.org/2000/svg" xmlns:xlink="http://www.w3.org/1999/xlink" x="0px" y="0px"
	 width="97px" height="97px" viewBox="0 0 97 97" style="enable-background:new 0 0 97 97;" xml:space="preserve">
<linearGradient id="SVGID_1_" gradientUnits="userSpaceOnUse" x1="-10.9414" y1="103.5771" x2="55.5653" y2="39.3524">
	<stop  offset="0" style="stop-color:#046973"/>
	<stop  offset="1" style="stop-color:#34A6AE"/>
</linearGradient>
<path style="fill-rule:evenodd;clip-rule:evenodd;fill:url(#SVGID_1_);stroke:#08828B;stroke-width:2.0001;stroke-linecap:round;stroke-linejoin:round;stroke-miterlimit:22.9256;" d="
	M24.542,91.888h11.709V61.124c0-1.599,1.308-2.906,2.906-2.906H57.18c1.599,0,2.907,1.313,2.907,2.906v30.764h11.709
	c4.796,0,8.72-3.924,8.72-8.721V37.203c0-4.796-3.927-8.72-8.72-8.72H60.729l-12.145-9.452l-11.973,9.452h-4.865V6.135H15.821
	c0,7.738,0,23.371,0,31.068v45.964C15.821,87.959,19.746,91.888,24.542,91.888z"/>
<path style="fill-rule:evenodd;clip-rule:evenodd;fill:#F9B97A;stroke:#08828B;stroke-width:2.0001;stroke-linecap:round;stroke-linejoin:round;stroke-miterlimit:22.9256;" d="
	M48.588,23.228L13.572,50.585c-0.824,0.644-1.74,1.095-2.689,1.358c-0.989,0.275-2.012,0.348-3.005,0.227
	c-0.994-0.123-1.972-0.441-2.867-0.948c-0.833-0.471-1.593-1.107-2.227-1.901c-0.04-0.043-0.076-0.089-0.106-0.137
	c-0.616-0.807-1.051-1.698-1.307-2.621c-0.275-0.989-0.348-2.012-0.227-3.005c0.123-0.994,0.441-1.972,0.948-2.867
	c0.484-0.856,1.144-1.636,1.97-2.28L43.434,7.65c0.388-0.303,0.799-0.564,1.228-0.784c0.438-0.225,0.892-0.404,1.354-0.539
	c0.432-0.127,0.867-0.214,1.3-0.263c0.422-0.047,0.848-0.059,1.272-0.037c0.425-0.021,0.851-0.01,1.272,0.037
	c0.433,0.049,0.868,0.136,1.301,0.263c0.462,0.135,0.916,0.314,1.354,0.539c0.429,0.22,0.841,0.481,1.229,0.784l39.164,30.598
	c0.082,0.055,0.161,0.113,0.236,0.172c0.081,0.064,0.161,0.136,0.239,0.212l0.002,0.001c0.739,0.633,1.332,1.376,1.769,2.183
	l0.002-0.001c0.465,0.856,0.759,1.79,0.876,2.744c0.116,0.944,0.055,1.918-0.189,2.866l-0.001,0.003l0.001,0.001
	c-0.236,0.913-0.642,1.796-1.223,2.598l-0.001,0.001c-0.058,0.09-0.11,0.166-0.159,0.229c-0.019,0.024-0.038,0.047-0.059,0.068
	c-0.058,0.071-0.116,0.136-0.173,0.195l-0.001,0.001c-0.633,0.74-1.377,1.333-2.184,1.771l0.001,0.001
	c-0.857,0.466-1.791,0.761-2.745,0.878c-0.993,0.121-2.017,0.049-3.006-0.227c-0.949-0.263-1.864-0.715-2.689-1.358L48.588,23.228z"
	/>
<linearGradient id="SVGID_2_" gradientUnits="userSpaceOnUse" x1="446.3633" y1="31.0459" x2="452.3705" y2="23.357" gradientTransform="matrix(-1 0 0 1 476.2754 0)">
	<stop  offset="0" style="stop-color:#FABF73"/>
	<stop  offset="0.7109" style="stop-color:#FFFFFF"/>
</linearGradient>
<path style="fill-rule:evenodd;clip-rule:evenodd;fill:url(#SVGID_2_);" d="M48.116,18.151L11.537,46.243
	c-0.87,0.68-1.934,0.942-2.945,0.818c-1.013-0.124-1.981-0.637-2.661-1.507l0,0l0,0c-0.68-0.87-0.942-1.933-0.818-2.945
	s0.637-1.981,1.507-2.661l38.975-29.96c0.407-0.318,0.861-0.545,1.333-0.684c0.388-0.113,0.789-0.166,1.189-0.159V18.151z"/>
<linearGradient id="SVGID_3_" gradientUnits="userSpaceOnUse" x1="445.3984" y1="30.9819" x2="451.406" y2="23.2926" gradientTransform="matrix(1 0 0 1 -379.0762 0)">
	<stop  offset="0" style="stop-color:#FABF73"/>
	<stop  offset="0.7118" style="stop-color:#FFFFFF"/>
</linearGradient>
<path style="fill-rule:evenodd;clip-rule:evenodd;fill:url(#SVGID_3_);" d="M48.119,18.087l36.579,28.092
	c0.871,0.68,1.934,0.942,2.945,0.818c1.014-0.124,1.982-0.637,2.662-1.507l0,0l0,0c0.68-0.87,0.941-1.933,0.818-2.945
	c-0.125-1.013-0.637-1.981-1.508-2.661L50.641,9.924c-0.406-0.318-0.861-0.545-1.332-0.684c-0.388-0.113-0.79-0.166-1.19-0.159
	V18.087z"/>
</svg>
