<?xml version="1.0" encoding="iso-8859-1"?><!DOCTYPE svg PUBLIC "-//W3C//DTD SVG 1.1//EN" "http://www.w3.org/Graphics/SVG/1.1/DTD/svg11.dtd">
<svg version="1.1" id="Capa_1" xmlns="http://www.w3.org/2000/svg" xmlns:xlink="http://www.w3.org/1999/xlink" x="0px" y="0px"
	 width="97px" height="97px" viewBox="0 0 97 97" style="enable-background:new 0 0 97 97;" xml:space="preserve">
<path style="fill-rule:evenodd;clip-rule:evenodd;fill:#288F95;stroke:#288F95;stroke-width:4;stroke-miterlimit:22.9256;" d="
	M68.374,46.663c12.191,0,22.134-9.942,22.134-22.132c0-12.189-9.942-22.132-22.134-22.132c-12.189,0-22.131,9.942-22.131,22.132
	C46.243,36.72,56.185,46.663,68.374,46.663z"/>
<line style="fill-rule:evenodd;clip-rule:evenodd;fill:none;stroke:#FFFFFF;stroke-width:7.9999;stroke-miterlimit:22.9256;" x1="68.702" y1="10.721" x2="68.702" y2="38.34"/>
<line style="fill-rule:evenodd;clip-rule:evenodd;fill:none;stroke:#FFFFFF;stroke-width:7.9999;stroke-miterlimit:22.9256;" x1="54.893" y1="24.53" x2="82.51" y2="24.53"/>
<linearGradient id="SVGID_1_" gradientUnits="userSpaceOnUse" x1="6.3516" y1="85.625" x2="6.3516" y2="37.4957">
	<stop  offset="0" style="stop-color:#046973"/>
	<stop  offset="1" style="stop-color:#34A6AE"/>
</linearGradient>
<path style="fill-rule:evenodd;clip-rule:evenodd;fill:url(#SVGID_1_);stroke:#08828B;stroke-width:2.0001;stroke-linecap:round;stroke-linejoin:round;stroke-miterlimit:22.9256;" d="
	M6.351,26.649L6.351,26.649c2.56,0,4.655,2.1,4.655,4.655v60.041C11.006,93.9,8.911,96,6.351,96l0,0
	c-2.56,0-4.654-2.095-4.654-4.655V31.304C1.697,28.744,3.792,26.649,6.351,26.649z"/>
<linearGradient id="SVGID_2_" gradientUnits="userSpaceOnUse" x1="90.2871" y1="94.9678" x2="91.0864" y2="49.176">
	<stop  offset="0" style="stop-color:#046973"/>
	<stop  offset="1" style="stop-color:#34A6AE"/>
</linearGradient>
<path style="fill-rule:evenodd;clip-rule:evenodd;fill:url(#SVGID_2_);stroke:#08828B;stroke-width:2.0001;stroke-linecap:round;stroke-linejoin:round;stroke-miterlimit:22.9256;" d="
	M90.664,50.43L90.664,50.43c2.562,0,4.655,2.104,4.655,4.655v36.366c0,2.55-2.094,4.655-4.655,4.655l0,0
	c-2.559,0-4.654-2.096-4.654-4.655V55.085C86.01,52.523,88.105,50.43,90.664,50.43z"/>
<linearGradient id="SVGID_3_" gradientUnits="userSpaceOnUse" x1="19.4497" y1="57.6953" x2="40.1171" y2="39.7295">
	<stop  offset="0" style="stop-color:#0A8991"/>
	<stop  offset="0.0102" style="stop-color:#1B8B93"/>
	<stop  offset="0.1537" style="stop-color:#6FA6AD"/>
	<stop  offset="0.2988" style="stop-color:#A0C0C6"/>
	<stop  offset="0.4429" style="stop-color:#C4D6DA"/>
	<stop  offset="0.5858" style="stop-color:#DEE8EB"/>
	<stop  offset="0.727" style="stop-color:#F1F5F6"/>
	<stop  offset="0.866" style="stop-color:#FCFDFD"/>
	<stop  offset="1" style="stop-color:#FFFFFF"/>
</linearGradient>
<path style="fill-rule:evenodd;clip-rule:evenodd;fill:url(#SVGID_3_);stroke:#08828B;stroke-width:2.0001;stroke-linecap:round;stroke-linejoin:round;stroke-miterlimit:22.9256;" d="
	M24.694,37.687c1.493,0,2.901,0.362,4.143,1.004l13.921,6.943c1.962,0.754,3.354,2.656,3.354,4.884c0,2.87-2.31,5.197-5.17,5.229
	l0,0h-0.059H24.987c-0.097,0.004-0.194,0.006-0.292,0.006c-4.989,0-9.034-4.045-9.034-9.033
	C15.661,41.731,19.706,37.687,24.694,37.687z"/>
<linearGradient id="SVGID_4_" gradientUnits="userSpaceOnUse" x1="48.5386" y1="83.9238" x2="48.5386" y2="55.6133">
	<stop  offset="0" style="stop-color:#0A8991"/>
	<stop  offset="0.031" style="stop-color:#2F8F97"/>
	<stop  offset="0.1664" style="stop-color:#76AAB1"/>
	<stop  offset="0.3044" style="stop-color:#A4C2C8"/>
	<stop  offset="0.4425" style="stop-color:#C7D8DC"/>
	<stop  offset="0.5808" style="stop-color:#E0E9EC"/>
	<stop  offset="0.7195" style="stop-color:#F1F5F7"/>
	<stop  offset="0.8588" style="stop-color:#FCFDFD"/>
	<stop  offset="1" style="stop-color:#FFFFFF"/>
</linearGradient>
<path style="fill-rule:evenodd;clip-rule:evenodd;fill:url(#SVGID_4_);stroke:#08828B;stroke-width:2.0001;stroke-linecap:round;stroke-linejoin:round;stroke-miterlimit:22.9256;" d="
	M13.975,57.587h69.127c1.628,0,2.958,1.333,2.958,2.959v22.393c0,1.628-1.331,2.959-2.958,2.959H13.975
	c-1.627,0-2.959-0.805-2.959-2.434V61.071C11.016,59.444,12.347,57.587,13.975,57.587z"/>
</svg>
