<?xml version="1.0" encoding="utf-8"?>
<!DOCTYPE svg PUBLIC "-//W3C//DTD SVG 1.1//EN" "http://www.w3.org/Graphics/SVG/1.1/DTD/svg11.dtd">
<svg version="1.1" id="Capa_1" xmlns="http://www.w3.org/2000/svg" xmlns:xlink="http://www.w3.org/1999/xlink" x="0px" y="0px"
	 width="97px" height="97px" viewBox="0 0 97 97" enable-background="new 0 0 97 97" xml:space="preserve">
<g>
	<g>
		
			<linearGradient id="SVGID_1_" gradientUnits="userSpaceOnUse" x1="-105.9487" y1="248.0742" x2="-69.9409" y2="248.0742" gradientTransform="matrix(1 0 0 -1 114.9448 296.7246)">
			<stop  offset="0" style="stop-color:#F1D0A0"/>
			<stop  offset="1" style="stop-color:#D88622"/>
		</linearGradient>
		
			<path fill="url(#SVGID_1_)" stroke="#4A8189" stroke-width="2" stroke-linecap="round" stroke-linejoin="round" stroke-miterlimit="22.9256" d="
			M24.008,1.446c4.231-0.873,8.767,0.255,12.191,2.57c3.514,2.378,6.024,5.828,7.389,9.553c2.58,6.861,1.645,14.81-2.896,20.856
			c-1.782,2.407-4.239,4.393-7.087,5.749c-0.004,16.605,0.016,33.214-0.007,49.823c0.062,2.354-1.516,4.663-3.931,5.63
			c-2.432,1.048-5.523,0.478-7.351-1.28c-1.402-1.22-1.96-2.998-1.927-4.702c-0.008-16.498,0-32.994-0.003-49.486
			c-5.135-2.352-8.64-6.89-10.245-11.752c-2.14-6.389-1.288-13.601,2.586-19.33C15.224,5.386,19.219,2.354,24.008,1.446z"/>
	</g>
</g>
<g>
	
		<path fill="#81BBC1" stroke="#498088" stroke-width="2" stroke-linecap="round" stroke-linejoin="round" stroke-miterlimit="22.9256" d="
		M55.155,3.577c0.004-1.833,2.745-3.032,4.547-2.096c1.226,0.536,1.762,1.76,1.692,2.887c0,6.642-0.011,13.28,0.002,19.92
		c1.831,0.003,3.671,0.003,5.498,0.003c-0.003-6.766,0.01-13.536-0.003-20.31c-0.115-1.495,1.447-2.913,3.223-2.817
		c1.678,0.008,3.113,1.362,3.086,2.78c0.052,6.778,0.007,13.564,0.021,20.346c1.827,0.003,3.662,0.003,5.492-0.007
		c0.038-6.873-0.03-13.748,0.03-20.622c-0.003-1.851,2.676-3.141,4.541-2.189c1.266,0.522,1.815,1.757,1.699,2.902
		c-0.015,7.35,0,14.7-0.005,22.049c-0.043,2.617,0.271,5.309-0.753,7.832c-1.057,3.176-3.767,5.901-7.346,7.2
		c-0.021,16.296-0.002,32.594-0.002,48.891c0.034,2.271-1.745,4.404-4.16,5.281c-4.402,1.867-9.949-1.543-9.575-5.659
		c0-16.274,0-32.554,0-48.825c-5.139-2.228-8.147-7.196-8.021-12.04C55.159,20.593,55.099,12.086,55.155,3.577z"/>
</g>
<linearGradient id="SVGID_2_" gradientUnits="userSpaceOnUse" x1="-93.2798" y1="265.5059" x2="-82.1619" y2="284.7627" gradientTransform="matrix(1 0 0 -1 114.9448 296.7246)">
	<stop  offset="0" style="stop-color:#EBBD76"/>
	<stop  offset="1" style="stop-color:#FFFFFF"/>
</linearGradient>
<ellipse fill="url(#SVGID_2_)" cx="27.225" cy="21.588" rx="10.835" ry="13.296"/>
<linearGradient id="SVGID_3_" gradientUnits="userSpaceOnUse" x1="-44.2485" y1="269.7783" x2="-44.2485" y2="260.2917" gradientTransform="matrix(1 0 0 -1 114.9448 296.7246)">
	<stop  offset="0" style="stop-color:#81BBC1"/>
	<stop  offset="1" style="stop-color:#FFFFFF"/>
</linearGradient>
<path fill="url(#SVGID_3_)" d="M79.93,29.628l0.009-2.067l-18.498,0l-0.009,2.026h0.036c-0.022,0.186-0.035,0.371-0.036,0.561
	c-0.013,3.64,4.124,6.601,9.24,6.611c5.114,0.011,9.274-2.93,9.289-6.571C79.961,29.999,79.95,29.813,79.93,29.628L79.93,29.628z"/>
<path opacity="0.9" fill="none" stroke="#F6F6F6" stroke-width="3.1456" stroke-linecap="round" stroke-linejoin="round" stroke-miterlimit="10" enable-background="new    " d="
	M27.83,42.614c0,0,0.104,32.924,0,42.995c-0.021,2.053,0.87,5.378-2.424,4.549"/>
<path fill="none" stroke="#F6F6F6" stroke-width="3.1353" stroke-linecap="round" stroke-linejoin="round" stroke-miterlimit="10" d="
	M70.807,42.617c0,0,0.101,32.924,0,42.994c-0.022,2.053,0.862,5.378-2.409,4.549"/>
</svg>