<?xml version="1.0" encoding="iso-8859-1"?><!DOCTYPE svg PUBLIC "-//W3C//DTD SVG 1.1//EN" "http://www.w3.org/Graphics/SVG/1.1/DTD/svg11.dtd">
<svg version="1.1" id="Capa_1" xmlns="http://www.w3.org/2000/svg" xmlns:xlink="http://www.w3.org/1999/xlink" x="0px" y="0px"
	 width="97px" height="97px" viewBox="0 0 97 97" style="enable-background:new 0 0 97 97;" xml:space="preserve">
<path style="fill-rule:evenodd;clip-rule:evenodd;fill:#FFFFFF;stroke:#08828B;stroke-width:7.9999;stroke-miterlimit:22.9256;" d="
	M42.532,6.558h12.322c4.579,0,8.325,3.747,8.325,8.325v28.35c0,4.579-3.746,8.325-8.325,8.325H42.532
	c-4.579,0-8.326-3.746-8.326-8.325v-28.35C34.206,10.305,37.953,6.558,42.532,6.558z"/>
<linearGradient id="SVGID_1_" gradientUnits="userSpaceOnUse" x1="25.2759" y1="80.6191" x2="71.5742" y2="35.9094">
	<stop  offset="0" style="stop-color:#046973"/>
	<stop  offset="1" style="stop-color:#34A6AE"/>
</linearGradient>
<path style="fill-rule:evenodd;clip-rule:evenodd;fill:url(#SVGID_1_);stroke:#08828B;stroke-width:2.0001;stroke-linecap:round;stroke-linejoin:round;stroke-miterlimit:22.9256;" d="
	M10.751,93.118h75.336c5.408,0,9.832-4.424,9.832-9.832V33.249c0-5.408-4.424-9.832-9.832-9.832H10.751
	c-5.408,0-9.832,4.425-9.832,9.832v50.037C0.92,88.693,5.344,93.118,10.751,93.118z"/>
<line style="fill-rule:evenodd;clip-rule:evenodd;fill:none;stroke:#08828B;stroke-width:2.0001;stroke-linecap:round;stroke-linejoin:round;stroke-miterlimit:22.9256;" x1="0.928" y1="53.398" x2="95.525" y2="53.398"/>
<path style="fill-rule:evenodd;clip-rule:evenodd;fill:#FFFFFF;" d="M48.636,76.713c11.026,0,20.021-8.994,20.021-20.021
	c0-11.027-8.994-20.021-20.021-20.021c-11.027,0-20.021,8.994-20.021,20.021C28.614,67.719,37.608,76.713,48.636,76.713z"/>
<line style="fill-rule:evenodd;clip-rule:evenodd;fill:none;stroke:#08828B;stroke-width:7.9999;stroke-miterlimit:22.9256;" x1="48.922" y1="42.71" x2="48.922" y2="70.675"/>
<line style="fill-rule:evenodd;clip-rule:evenodd;fill:none;stroke:#08828B;stroke-width:7.9999;stroke-miterlimit:22.9256;" x1="34.94" y1="56.692" x2="62.904" y2="56.692"/>
</svg>
