<?xml version="1.0" encoding="utf-8"?>
<!DOCTYPE svg PUBLIC "-//W3C//DTD SVG 1.1//EN" "http://www.w3.org/Graphics/SVG/1.1/DTD/svg11.dtd">
<svg version="1.1" id="Capa_1" xmlns="http://www.w3.org/2000/svg" xmlns:xlink="http://www.w3.org/1999/xlink" x="0px" y="0px"
	 width="97px" height="97px" viewBox="0 0 97 97" enable-background="new 0 0 97 97" xml:space="preserve">
<linearGradient id="SVGID_1_" gradientUnits="userSpaceOnUse" x1="19.1382" y1="77.8877" x2="77.8639" y2="19.162">
	<stop  offset="0" style="stop-color:#046973"/>
	<stop  offset="1" style="stop-color:#34A6AE"/>
</linearGradient>
<path fill-rule="evenodd" clip-rule="evenodd" fill="url(#SVGID_1_)" stroke="#08828B" stroke-width="2.0001" stroke-linecap="round" stroke-linejoin="round" stroke-miterlimit="22.9256" d="
	M12.688,1.163h71.626c6.353,0,11.55,5.197,11.55,11.549v71.625c0,6.353-5.197,11.55-11.55,11.55H12.688
	c-6.352,0-11.549-5.197-11.549-11.55V12.711C1.139,6.36,6.336,1.163,12.688,1.163z"/>
<path fill="#FFFFFF" d="M83.812,14.333c1.777,0.02,3.519,0.04,5.188,0.04c0.897,0,1.625-0.728,1.625-1.625S89.897,11.123,89,11.123
	c-1.658,0-3.387-0.02-5.151-0.04c-5.091-0.058-10.443-0.116-15.304,0.278c-2.271-1.445-6.074-2.487-11.471-3.148
	c-0.888-0.112-1.701,0.525-1.811,1.416c-0.108,0.891,0.525,1.701,1.416,1.81c2.038,0.25,3.752,0.552,5.179,0.88
	c-2.77,0.625-5.162,1.545-6.959,2.893c-1.149-1.285-3.311-2.116-5.903-2.116c-2.591,0-4.75,0.832-5.897,2.116
	c-1.808-1.355-4.218-2.278-7.009-2.903c1.337-0.337,2.928-0.648,4.829-0.895c0.89-0.116,1.518-0.931,1.402-1.821
	c-0.116-0.89-0.935-1.517-1.821-1.402c-2.697,0.351-7.74,1.241-10.867,3.185c-4.908-0.41-10.329-0.351-15.479-0.292
	c-1.765,0.02-3.495,0.04-5.153,0.04c-0.897,0-1.625,0.728-1.625,1.625S8.103,14.373,9,14.373c1.67,0,3.412-0.02,5.189-0.04
	c4.132-0.046,8.626-0.096,12.822,0.123c-0.065,0.268-0.104,0.545-0.104,0.835c0,1.628,1.106,2.98,2.949,4.072
	c-5.087,0.948-9.159,2.516-9.159,5.114c0,0.459,0.141,0.882,0.378,1.279c-3.404,1.033-6.73,2.708-6.73,5.322
	c0,1.432,1.091,2.604,2.868,3.571c-3.359,0.964-5.531,2.232-5.531,5.137c0,0.825,0.452,1.566,1.342,2.204
	c0.503,0.361,1.252,0.735,2.195,1.106c-3.948,1.771-4.918,4.027-4.918,5.813c0,1.019,0.665,1.941,1.977,2.742
	c0.276,0.169,0.591,0.335,0.93,0.499c-2.638,0.975-4.357,2.343-4.357,4.959c0,1.64,1.79,2.898,3.679,3.771
	c-2.665,0.986-4.713,2.471-4.717,5.19c0,1.449,1.319,2.622,3.908,3.49c-2.286,1.324-3.449,3.004-3.453,5.032
	c0,1.437,1.401,2.81,3.651,3.688c-2.05,1.283-3.083,2.882-3.083,4.782c-0.002,1.877,2.215,3.818,5.046,4.421
	c0.548,0.116,1.218,0.204,1.994,0.204c4.513,0,12.628-2.963,21.328-20.282c1.328-1.702,2.659-3.64,3.981-5.845
	c1.096-1.037,2.174-2.179,3.222-3.441l0.554,11.284h7.747l0.553-11.275c1.047,1.261,2.123,2.399,3.218,3.436
	c1.538,2.563,3.088,4.77,4.63,6.66c8.245,16.263,15.764,19.598,20.532,19.598c0.758,0,1.446-0.085,2.058-0.214
	c2.875-0.61,5.127-2.605,5.127-4.543c0-2.175-1.362-3.7-3.1-4.775c2.263-0.878,3.672-2.256,3.672-3.701
	c-0.005-2.028-1.164-3.709-3.441-5.033c2.579-0.868,3.895-2.039,3.895-3.487c-0.003-2.676-1.881-4.203-4.565-5.26
	c1.834-0.869,3.531-2.104,3.531-3.699c0-2.604-1.737-4.039-4.218-5.031c0.282-0.141,0.55-0.282,0.786-0.427
	c1.313-0.801,1.978-1.723,1.978-2.745c-0.003-1.797-0.964-4.064-4.864-5.833c0.916-0.363,1.648-0.729,2.142-1.083
	c0.891-0.638,1.342-1.379,1.342-2.204c0-2.92-2.188-4.167-5.563-5.119c1.798-0.969,2.901-2.148,2.901-3.589
	c0-2.166-2.187-3.824-6.837-5.154c0.307-0.444,0.485-0.923,0.485-1.447c0-2.555-3.938-4.115-8.907-5.068
	c1.892-1.099,3.03-2.467,3.03-4.118c0-0.288-0.04-0.563-0.098-0.835C75.188,14.238,79.681,14.287,83.812,14.333z M30.158,15.292
	c0-0.132,0.122-0.333,0.375-0.574c4.76,0.475,8.808,1.453,11.009,3.4c-1.504,0.076-3.121,0.183-4.768,0.331
	C32.402,17.443,30.158,16.063,30.158,15.292z M36.6,21.737c1.7,0.363,3.535,0.641,5.433,0.836l0.337,5.052
	c-10.483-0.486-16.612-2.084-18.169-3.147C25.446,23.626,29.62,22.431,36.6,21.737z M23.755,28.395
	c0.23-0.055,0.434-0.159,0.61-0.294c4.567,1.848,12.466,2.533,18.223,2.783l0.325,4.857c-15.352-0.538-24.245-3.09-25.276-4.662
	C17.941,30.656,19.458,29.43,23.755,28.395z M22.091,36.807l0.139-0.031c0.16-0.036,0.304-0.101,0.44-0.177
	c6.333,1.568,14.87,2.152,20.458,2.368l0.235,3.519c-11.666,1.854-25.951-1.369-28.359-3.058
	C15.447,38.346,17.957,37.732,22.091,36.807z M20.84,44.716c4.178,0.916,9.436,1.583,14.764,1.583c2.689,0,5.389-0.178,7.976-0.569
	l0.146,2.178c-14.502,6.143-28.236,2.414-30.145,0.713C13.883,47.104,16.548,45.662,20.84,44.716z M18.981,53.926
	c2.248,0.428,4.853,0.694,7.699,0.694c5.2,0,11.201-0.889,17.274-3.294l0.059,0.871c-8.626,7.236-17.349,7.938-22.195,7.596
	c-5.392-0.378-8.901-2.142-9.69-2.945C12.374,55.632,14.422,55.002,18.981,53.926z M11.116,65.736
	c0.401-1.271,3.095-2.133,7.24-3.071c1.734,0.321,3.583,0.503,5.515,0.502c4.527,0,9.499-0.994,14.456-3.405
	c-6.928,6.213-14.218,7.488-18.435,7.616c-0.676,0.02-1.311,0.007-1.923-0.021l-0.001-0.005c-0.006,0.001-0.011,0.003-0.017,0.004
	C14.34,67.187,11.88,66.283,11.116,65.736z M17.401,75.964c-3.373,0.038-5.37-1.108-5.861-1.605c0.245-1.44,2.709-2.808,6.692-3.729
	c0.302,0.01,0.606,0.018,0.917,0.018c4.098,0,8.985-0.878,13.919-3.355c-5.678,6.444-10.974,8.243-14.465,8.599l-0.008-0.04
	c-0.102,0.022-0.196,0.047-0.296,0.069C17.983,75.945,17.683,75.959,17.401,75.964z M15.818,84.443
	c-2.25-0.032-3.479-1.104-3.725-1.506c0.137-1.451,2.605-2.849,6.683-3.794c2.688-0.235,6.023-1.131,9.662-3.461
	C22.654,83.436,17.97,84.49,15.818,84.443z M81.933,84.559c-2.121,0.059-6.699-0.929-12.429-8.699
	c3.354,2.09,6.439,2.965,8.986,3.244l-0.006,0.029c4.462,0.962,6.968,2.314,7.087,3.82C85.351,83.36,84.163,84.489,81.933,84.559z
	 M80.267,75.964c-3.396-0.057-9.293-1.438-15.668-8.671c4.934,2.478,9.82,3.355,13.917,3.354c0.326,0,0.646-0.008,0.961-0.018
	c3.961,0.919,6.41,2.286,6.652,3.729C85.638,74.855,83.628,75.989,80.267,75.964z M86.559,65.729
	c-0.752,0.544-3.213,1.446-6.812,1.622c-0.009-0.002-0.017-0.004-0.025-0.006l-0.002,0.008c-0.619,0.029-1.261,0.044-1.945,0.024
	c-4.217-0.128-11.508-1.402-18.438-7.615c4.958,2.411,9.93,3.405,14.459,3.405c2.084-0.001,4.069-0.215,5.921-0.586
	C84.239,63.621,86.249,64.535,86.559,65.729z M85.543,56.847c-0.789,0.804-4.3,2.568-9.694,2.946
	c-4.847,0.342-13.568-0.36-22.191-7.592l0.058-0.874c6.072,2.405,12.071,3.293,17.271,3.293c3.011,0,5.749-0.3,8.083-0.772
	C83.266,54.859,85.3,55.601,85.543,56.847z M84.085,48.621c-1.904,1.7-15.64,5.43-30.142-0.712l0.146-2.177
	c2.585,0.391,5.284,0.568,7.972,0.568c5.369,0,10.666-0.677,14.859-1.604C81.156,45.632,83.788,47.083,84.085,48.621z M75.42,36.81
	l0.339,0.076c4.017,0.897,6.461,1.495,6.901,2.542c-2.413,1.688-16.69,4.912-28.355,3.059l0.235-3.521
	c5.574-0.215,14.077-0.797,20.403-2.355C75.089,36.699,75.245,36.771,75.42,36.81z M80.026,31.084
	c-1.047,1.571-9.936,4.118-25.271,4.656l0.324-4.858c5.608-0.244,13.238-0.902,17.852-2.642c0.176,0.131,0.38,0.231,0.607,0.284
	C78.07,29.565,79.683,30.645,80.026,31.084z M73.466,24.478c-1.557,1.063-7.685,2.66-18.169,3.147l0.335-5.021
	c1.974-0.191,3.884-0.472,5.651-0.843C68.131,22.458,72.233,23.635,73.466,24.478z M67.842,15.292c0,0.777-2.277,2.171-6.716,3.178
	c-1.613-0.149-3.202-0.257-4.688-0.336c2.212-1.971,6.31-2.952,11.123-3.424C67.747,14.922,67.842,15.12,67.842,15.292z"/>
</svg>
