<?xml version="1.0" encoding="iso-8859-1"?><!DOCTYPE svg PUBLIC "-//W3C//DTD SVG 1.1//EN" "http://www.w3.org/Graphics/SVG/1.1/DTD/svg11.dtd">
<svg version="1.1" id="Capa_1" xmlns="http://www.w3.org/2000/svg" xmlns:xlink="http://www.w3.org/1999/xlink" x="0px" y="0px"
	 width="97px" height="97px" viewBox="0 0 97 97" style="enable-background:new 0 0 97 97;" xml:space="preserve">
<linearGradient id="SVGID_1_" gradientUnits="userSpaceOnUse" x1="3.8037" y1="103.3359" x2="73.7429" y2="35.7965">
	<stop  offset="0" style="stop-color:#046973"/>
	<stop  offset="1" style="stop-color:#34A6AE"/>
</linearGradient>
<path style="fill-rule:evenodd;clip-rule:evenodd;fill:url(#SVGID_1_);stroke:#08828B;stroke-width:2.0001;stroke-linecap:round;stroke-linejoin:round;stroke-miterlimit:22.9256;" d="
	M5.825,36.119h19.167V5.837c0-2.456,2.009-4.465,4.465-4.465h41.534c2.456,0,4.466,2.011,4.466,4.465v30.282h15.905
	c2.454,0,4.465,2.01,4.465,4.465v50.922c0,2.457-2.011,4.467-4.465,4.467H66.219l0.001-0.071V80.689c0-2.455-2.01-4.464-4.465-4.464
	H36.493c-2.455,0-4.465,2.01-4.465,4.464v15.212l0.001,0.071H5.825c-2.456,0-4.465-2.01-4.465-4.467V40.584
	C1.36,38.128,3.37,36.119,5.825,36.119z"/>
<path style="fill-rule:evenodd;clip-rule:evenodd;fill:#FFFFFF;" d="M9.532,43.985h12.046c0.546,0,0.994,0.447,0.994,0.994v7.729
	c0,0.547-0.448,0.995-0.994,0.995H9.532c-0.546,0-0.994-0.448-0.994-0.995v-7.729C8.538,44.433,8.985,43.985,9.532,43.985z"/>
<path style="fill-rule:evenodd;clip-rule:evenodd;fill:#FFFFFF;" d="M31.316,43.985h12.048c0.547,0,0.993,0.447,0.993,0.994v7.729
	c0,0.547-0.446,0.995-0.993,0.995H31.316c-0.547,0-0.994-0.448-0.994-0.995v-7.729C30.322,44.433,30.769,43.985,31.316,43.985z"/>
<path style="fill-rule:evenodd;clip-rule:evenodd;fill:#FFFFFF;" d="M31.316,59.597h12.048c0.547,0,0.993,0.448,0.993,0.996v7.726
	c0,0.549-0.446,0.994-0.993,0.994H31.316c-0.547,0-0.994-0.445-0.994-0.994v-7.726C30.322,60.045,30.769,59.597,31.316,59.597z"/>
<path style="fill-rule:evenodd;clip-rule:evenodd;fill:#FFFFFF;" d="M9.532,59.479h12.046c0.546,0,0.994,0.448,0.994,0.993v7.729
	c0,0.545-0.448,0.993-0.994,0.993H9.532c-0.546,0-0.994-0.448-0.994-0.993v-7.729C8.538,59.928,8.985,59.479,9.532,59.479z"/>
<path style="fill-rule:evenodd;clip-rule:evenodd;fill:#FFFFFF;" d="M9.532,74.973h12.046c0.546,0,0.994,0.448,0.994,0.995v7.728
	c0,0.547-0.448,0.993-0.994,0.993H9.532c-0.546,0-0.994-0.446-0.994-0.993v-7.728C8.538,75.421,8.985,74.973,9.532,74.973z"/>
<path style="fill-rule:evenodd;clip-rule:evenodd;fill:#FFFFFF;" d="M53.102,43.985h12.046c0.547,0,0.994,0.447,0.994,0.994v7.729
	c0,0.547-0.447,0.995-0.994,0.995H53.102c-0.547,0-0.995-0.448-0.995-0.995v-7.729C52.106,44.433,52.555,43.985,53.102,43.985z"/>
<path style="fill-rule:evenodd;clip-rule:evenodd;fill:#FFFFFF;" d="M53.102,59.597h12.046c0.547,0,0.994,0.448,0.994,0.996v7.726
	c0,0.549-0.447,0.994-0.994,0.994H53.102c-0.547,0-0.995-0.445-0.995-0.994v-7.726C52.106,60.045,52.555,59.597,53.102,59.597z"/>
<path style="fill-rule:evenodd;clip-rule:evenodd;fill:#FFFFFF;" d="M74.885,43.985h12.047c0.547,0,0.994,0.447,0.994,0.994v7.729
	c0,0.547-0.447,0.995-0.994,0.995H74.885c-0.547,0-0.992-0.448-0.992-0.995v-7.729C73.893,44.433,74.338,43.985,74.885,43.985z"/>
<path style="fill-rule:evenodd;clip-rule:evenodd;fill:#FFFFFF;" d="M74.885,59.504h12.046c0.548,0,0.995,0.448,0.995,0.995v7.728
	c0,0.548-0.447,0.993-0.995,0.993H74.885c-0.547,0-0.992-0.445-0.992-0.993v-7.728C73.893,59.952,74.338,59.504,74.885,59.504z"/>
<path style="fill-rule:evenodd;clip-rule:evenodd;fill:#FFFFFF;" d="M74.885,75.021h12.047c0.547,0,0.994,0.448,0.994,0.995v7.728
	c0,0.547-0.447,0.996-0.994,0.996H74.885c-0.547,0-0.992-0.449-0.992-0.996v-7.728C73.893,75.47,74.338,75.021,74.885,75.021z"/>
<path style="fill-rule:evenodd;clip-rule:evenodd;fill:#FFFFFF;" d="M49.504,37.387c8.764,0,15.911-7.147,15.911-15.91
	S58.268,5.566,49.504,5.566c-8.763,0-15.91,7.148-15.91,15.911S40.741,37.387,49.504,37.387z"/>
<line style="fill-rule:evenodd;clip-rule:evenodd;fill:none;stroke:#08828B;stroke-width:6.0001;stroke-miterlimit:22.9256;" x1="49.747" y1="9.544" x2="49.747" y2="33.409"/>
<line style="fill-rule:evenodd;clip-rule:evenodd;fill:none;stroke:#08828B;stroke-width:6.0001;stroke-miterlimit:22.9256;" x1="37.942" y1="21.477" x2="61.554" y2="21.477"/>
</svg>
