<?xml version="1.0" encoding="iso-8859-1"?><!DOCTYPE svg PUBLIC "-//W3C//DTD SVG 1.1//EN" "http://www.w3.org/Graphics/SVG/1.1/DTD/svg11.dtd">
<svg version="1.1" id="Capa_1" xmlns="http://www.w3.org/2000/svg" xmlns:xlink="http://www.w3.org/1999/xlink" x="0px" y="0px"
	 width="97px" height="97px" viewBox="0 0 97 97" style="enable-background:new 0 0 97 97;" xml:space="preserve">
<linearGradient id="SVGID_1_" gradientUnits="userSpaceOnUse" x1="19.1382" y1="77.8877" x2="77.8639" y2="19.162">
	<stop  offset="0" style="stop-color:#046973"/>
	<stop  offset="1" style="stop-color:#34A6AE"/>
</linearGradient>
<path style="fill-rule:evenodd;clip-rule:evenodd;fill:url(#SVGID_1_);stroke:#08828B;stroke-width:2.0001;stroke-linecap:round;stroke-linejoin:round;stroke-miterlimit:22.9256;" d="
	M12.688,1.163h71.626c6.353,0,11.55,5.197,11.55,11.549v71.625c0,6.353-5.197,11.55-11.55,11.55H12.688
	c-6.352,0-11.549-5.197-11.549-11.55V12.711C1.139,6.36,6.336,1.163,12.688,1.163z"/>
<g>
	
		<path style="fill:#FFFFFF;stroke:#FFFFFF;stroke-width:1.0001;stroke-linecap:round;stroke-linejoin:round;stroke-miterlimit:5;" d="
		M85.545,15.997l1.71,2.442c-6.969,5.243-14.72,13.319-23.251,24.228c-8.532,10.91-15.045,21.102-19.539,30.579l-3.615,2.441
		c-2.997,2.085-5.031,3.632-6.106,4.641c-0.423-1.53-1.352-4.037-2.784-7.522l-1.368-3.175c-1.954-4.559-3.77-7.929-5.446-10.111
		c-1.678-2.181-3.558-3.631-5.642-4.347c3.517-3.713,6.741-5.569,9.671-5.569c2.507,0,5.292,3.403,8.353,10.209l1.514,3.42
		c5.503-9.281,12.57-18.301,21.2-27.062C68.872,27.411,77.307,20.686,85.545,15.997z"/>
</g>
</svg>
