<?xml version="1.0" encoding="iso-8859-1"?><!DOCTYPE svg PUBLIC "-//W3C//DTD SVG 1.1//EN" "http://www.w3.org/Graphics/SVG/1.1/DTD/svg11.dtd">
<svg version="1.1" id="Capa_1" xmlns="http://www.w3.org/2000/svg" xmlns:xlink="http://www.w3.org/1999/xlink" x="0px" y="0px"
	 width="97px" height="97px" viewBox="0 0 97 97" style="enable-background:new 0 0 97 97;" xml:space="preserve">
<linearGradient id="SVGID_1_" gradientUnits="userSpaceOnUse" x1="48.853" y1="55.0264" x2="48.853" y2="19.3404">
	<stop  offset="0" style="stop-color:#FABF73"/>
	<stop  offset="1" style="stop-color:#FFFFFF"/>
</linearGradient>
<path style="fill-rule:evenodd;clip-rule:evenodd;fill:url(#SVGID_1_);stroke:#08828B;stroke-width:2.0001;stroke-linecap:round;stroke-linejoin:round;stroke-miterlimit:22.9256;" d="
	M84.215,25.805H37.315l-0.453-0.007l-5.65-9.044H13.49c-1.922,0-3.503,1.58-3.503,3.503v24.796v0.025v9.026
	c0,1.926,1.578,3.504,3.503,3.504h70.725c1.926,0,3.503-1.578,3.503-3.504V29.308C87.718,27.381,86.139,25.805,84.215,25.805z"/>
<linearGradient id="SVGID_2_" gradientUnits="userSpaceOnUse" x1="11.5742" y1="151.3574" x2="67.8651" y2="12.0327">
	<stop  offset="0" style="stop-color:#34A6AE"/>
	<stop  offset="1" style="stop-color:#FFFFFF"/>
</linearGradient>
<path style="fill-rule:evenodd;clip-rule:evenodd;fill:url(#SVGID_2_);stroke:#08828B;stroke-width:2.0001;stroke-linecap:round;stroke-linejoin:round;stroke-miterlimit:22.9256;" d="
	M90.628,15.936l-15.362-4.117L52.364,5.683L37.002,1.565c-1.829-0.489-3.734,0.635-4.234,2.499l-4.194,15.657L13.421,76.271
	c-0.5,1.865,0.588,3.79,2.417,4.28L69.465,94.92c1.829,0.49,3.736-0.633,4.235-2.497l15.151-56.55l4.195-15.656
	C93.546,18.352,92.457,16.426,90.628,15.936z"/>
<line style="fill-rule:evenodd;clip-rule:evenodd;fill:none;stroke:#08828B;stroke-width:2.9999;stroke-linecap:round;stroke-linejoin:round;stroke-miterlimit:22.9256;" x1="40.286" y1="17.747" x2="79.074" y2="28.141"/>
<line style="fill-rule:evenodd;clip-rule:evenodd;fill:none;stroke:#08828B;stroke-width:2.9999;stroke-linecap:round;stroke-linejoin:round;stroke-miterlimit:22.9256;" x1="38.239" y1="25.381" x2="77.028" y2="35.775"/>
<line style="fill-rule:evenodd;clip-rule:evenodd;fill:none;stroke:#08828B;stroke-width:2.9999;stroke-linecap:round;stroke-linejoin:round;stroke-miterlimit:22.9256;" x1="36.194" y1="33.015" x2="56.521" y2="38.462"/>
<linearGradient id="SVGID_3_" gradientUnits="userSpaceOnUse" x1="4.6167" y1="91.7041" x2="85.5315" y2="46.8523">
	<stop  offset="0" style="stop-color:#046973"/>
	<stop  offset="1" style="stop-color:#34A6AE"/>
</linearGradient>
<path style="fill-rule:evenodd;clip-rule:evenodd;fill:url(#SVGID_3_);stroke:#08828B;stroke-width:2.0001;stroke-linecap:round;stroke-linejoin:round;stroke-miterlimit:22.9256;" d="
	M5.621,42.039h86.464c1.926,0,3.763,1.597,3.503,3.503l-6.422,46.904c-0.263,1.901-1.583,3.503-3.503,3.503H12.044
	c-1.921,0-3.241-1.596-3.502-3.503L2.118,45.542C1.857,43.633,3.694,42.039,5.621,42.039z"/>
</svg>
