<?xml version="1.0" encoding="iso-8859-1"?><!DOCTYPE svg PUBLIC "-//W3C//DTD SVG 1.1//EN" "http://www.w3.org/Graphics/SVG/1.1/DTD/svg11.dtd">
<svg version="1.1" id="Capa_1" xmlns="http://www.w3.org/2000/svg" xmlns:xlink="http://www.w3.org/1999/xlink" x="0px" y="0px"
	 width="97px" height="97px" viewBox="0 0 97 97" style="enable-background:new 0 0 97 97;" xml:space="preserve">
<linearGradient id="SVGID_1_" gradientUnits="userSpaceOnUse" x1="82.8379" y1="16.728" x2="16.4623" y2="78.6243">
	<stop  offset="0" style="stop-color:#FCD29F"/>
	<stop  offset="1" style="stop-color:#F18706"/>
</linearGradient>
<path style="fill-rule:evenodd;clip-rule:evenodd;fill:url(#SVGID_1_);stroke:#08828B;stroke-width:2;stroke-linecap:round;stroke-linejoin:round;stroke-miterlimit:22.9256;" d="
	M12.89,1.305h71.531c6.345,0,11.534,5.189,11.534,11.532v71.531c0,6.345-5.189,11.533-11.534,11.533H12.89
	c-6.342,0-11.532-5.188-11.532-11.533V12.837C1.357,6.494,6.547,1.305,12.89,1.305z"/>
<line style="fill-rule:evenodd;clip-rule:evenodd;fill:none;stroke:#08828B;stroke-width:2.0001;stroke-linecap:round;stroke-linejoin:round;stroke-miterlimit:22.9256;" x1="72.437" y1="22.6" x2="21.927" y2="73.111"/>
<line style="fill-rule:evenodd;clip-rule:evenodd;fill:none;stroke:#08828B;stroke-width:2.0001;stroke-linecap:round;stroke-linejoin:round;stroke-miterlimit:22.9256;" x1="21.926" y1="22.601" x2="72.437" y2="73.111"/>
<path style="fill-rule:evenodd;clip-rule:evenodd;fill:#FFFFFF;" d="M17.641,26.887c-2.366-2.367-2.366-6.204,0-8.571
	c2.367-2.366,6.204-2.366,8.57,0l20.971,20.97l20.971-20.97c2.365-2.366,6.204-2.366,8.571,0c2.366,2.367,2.366,6.204,0,8.571
	l-20.972,20.97l20.971,20.969c2.367,2.367,2.367,6.205,0,8.572c-2.366,2.366-6.205,2.366-8.571,0l-20.97-20.97l-20.97,20.97
	c-2.367,2.365-6.204,2.365-8.571,0c-2.366-2.368-2.366-6.206,0-8.572l20.97-20.969L17.641,26.887z"/>
</svg>
