<?xml version="1.0" encoding="utf-8"?>
<!DOCTYPE svg PUBLIC "-//W3C//DTD SVG 1.1//EN" "http://www.w3.org/Graphics/SVG/1.1/DTD/svg11.dtd">
<svg version="1.1" id="Capa_1" xmlns="http://www.w3.org/2000/svg" xmlns:xlink="http://www.w3.org/1999/xlink" x="0px" y="0px"
	 width="97px" height="97px" viewBox="0 0 97 97" enable-background="new 0 0 97 97" xml:space="preserve">
  <linearGradient id="SVGID_1_" gradientUnits="userSpaceOnUse" x1="29.3535" y1="85.4512" x2="67.9793" y2="18.5494">
    <stop  offset="0.1452" style="stop-color:#076A72"/>
    <stop  offset="0.6684" style="stop-color:#33A8AE"/>
  </linearGradient>
  <path fill-rule="evenodd" clip-rule="evenodd" fill="url(#SVGID_1_)" stroke="#118389" stroke-width="1.7625" stroke-linecap="round" stroke-linejoin="round" stroke-miterlimit="22.9256" d="
	M12.596,7.825h72.14c6.396,0,11.629,5.233,11.629,11.63v65.086c0,6.399-5.233,11.633-11.629,11.633h-72.14
	c-6.396,0-11.631-5.233-11.631-11.633V19.456C0.965,13.059,6.2,7.825,12.596,7.825z"/>
  <g>
    <path fill="#FFFFFF" d="M71.555,89.901c5.356-5.357,10.786-10.645,16.069-16.074c0.016,3.976,0.096,7.957-0.023,11.933
		c-0.006,2.215-2.034,4.146-4.225,4.112C79.435,89.975,75.497,89.889,71.555,89.901z"/>
    <path fill="#FFFFFF" d="M86.642,37.478c0.062-2.271-1.889-4.354-4.204-4.209c-22.52-0.027-45.039,0.012-67.561-0.021
		c-0.668-0.012-1.334,0.033-1.992,0.121c-2.089,0.421-3.361,2.62-3.207,4.658c0.01,15.502-0.017,31.004,0.01,46.502
		c-0.248,2.559,2.072,4.918,4.643,4.662c14.212,0.021,28.43,0.012,42.646,0.006c2.365,0.201,4.74-1.717,4.681-4.17
		c0.121-4.951-0.027-9.916,0.05-14.865c0-3.113,2.819-5.807,5.889-5.877c5.139-0.15,10.289,0.07,15.429-0.082
		c2.221-0.189,3.776-2.404,3.627-4.555C86.668,52.262,86.697,44.868,86.642,37.478z M35.817,84.439
		c-9.716,0-16.275-5.818-16.092-15.781h8.356c0.186,4.703,2.537,8.539,7.613,8.539c3.959,0,7.054-2.721,7.054-6.807
		c0-6.559-5.756-6.436-10.025-6.436v-6.189c3.774,0.309,9.222-0.434,9.222-5.385c0-3.651-2.91-5.754-6.128-5.754
		c-4.395,0-6.746,3.28-6.685,7.735h-8.354c0.31-8.849,6.065-14.976,14.977-14.976c6.933,0,14.545,4.27,14.545,12.005
		c0,4.086-2.042,7.736-6.065,8.85v0.125c4.767,1.051,7.674,5.012,7.674,9.84C51.908,79.303,44.296,84.439,35.817,84.439z
		 M71.652,59.092c-4.417-0.051-6.391-0.195-8.885,1.611c0.026-5.309-0.005-2.482,0.016-7.783c-2.87-0.014-5.743-0.033-8.615,0.033
		c-0.092-1.939-0.099-3.881-0.087-5.816c2.754-0.166,5.717-0.277,8.049-1.952c1.711-1.17,2.486-3.19,3.068-5.097
		c2.166-0.1,4.344-0.087,6.516-0.074C71.681,47.23,71.741,52.045,71.652,59.092z"/>
  </g>
  <g>
    <circle fill-rule="evenodd" clip-rule="evenodd" fill="#FFFFFF" cx="17.478" cy="20.806" r="8.25"/>
    <path fill="#FBB579" d="M22.228,18.083c0,2.623-2.126,4.75-4.75,4.75l0,0c-2.623,0-4.75-2.127-4.75-4.75V4.944
		c0-2.624,2.127-4.75,4.75-4.75l0,0c2.624,0,4.75,2.126,4.75,4.75V18.083z"/>
    <linearGradient id="SVGID_2_" gradientUnits="userSpaceOnUse" x1="15.9424" y1="11.1787" x2="20.6201" y2="11.1787">
      <stop  offset="0" style="stop-color:#FCBA74"/>
      <stop  offset="1" style="stop-color:#FFFFFF"/>
    </linearGradient>
    <path fill="url(#SVGID_2_)" d="M20.62,17.714c0,1.736-1.047,3.143-2.339,3.143l0,0c-1.292,0-2.339-1.406-2.339-3.143V4.643
		c0-1.735,1.046-3.142,2.339-3.142l0,0c1.292,0,2.339,1.406,2.339,3.142V17.714z"/>
  </g>
  <g>
    <circle fill-rule="evenodd" clip-rule="evenodd" fill="#FFFFFF" cx="48.881" cy="20.611" r="8.25"/>
    <path fill="#FBB579" d="M53.631,17.889c0,2.623-2.126,4.75-4.75,4.75l0,0c-2.623,0-4.75-2.127-4.75-4.75V4.75
		c0-2.624,2.127-4.75,4.75-4.75l0,0c2.624,0,4.75,2.126,4.75,4.75V17.889z"/>
    <linearGradient id="SVGID_3_" gradientUnits="userSpaceOnUse" x1="47.3457" y1="10.9844" x2="52.0234" y2="10.9844">
      <stop  offset="0" style="stop-color:#FCBA74"/>
      <stop  offset="1" style="stop-color:#FFFFFF"/>
    </linearGradient>
    <path fill="url(#SVGID_3_)" d="M52.023,17.52c0,1.736-1.047,3.143-2.339,3.143l0,0c-1.292,0-2.339-1.406-2.339-3.143V4.448
		c0-1.735,1.046-3.142,2.339-3.142l0,0c1.292,0,2.339,1.406,2.339,3.142V17.52z"/>
  </g>
  <g>
    <circle fill-rule="evenodd" clip-rule="evenodd" fill="#FFFFFF" cx="80.285" cy="20.611" r="8.25"/>
    <path fill="#FBB579" d="M85.035,17.889c0,2.623-2.126,4.75-4.75,4.75l0,0c-2.623,0-4.75-2.127-4.75-4.75V4.75
		c0-2.624,2.127-4.75,4.75-4.75l0,0c2.624,0,4.75,2.126,4.75,4.75V17.889z"/>
    <linearGradient id="SVGID_4_" gradientUnits="userSpaceOnUse" x1="78.75" y1="10.9844" x2="83.4277" y2="10.9844">
      <stop  offset="0" style="stop-color:#FCBA74"/>
      <stop  offset="1" style="stop-color:#FFFFFF"/>
    </linearGradient>
    <path fill="url(#SVGID_4_)" d="M83.428,17.52c0,1.736-1.047,3.143-2.339,3.143l0,0c-1.292,0-2.339-1.406-2.339-3.143V4.448
		c0-1.735,1.047-3.142,2.339-3.142l0,0c1.292,0,2.339,1.406,2.339,3.142V17.52z"/>
  </g>
  <g></g>
  <g></g>
  <g></g>
  <g></g>
  <g></g>
  <g></g>
</svg>
